# Created by DisUnity v0.3.4
v 0.09375 0.5625 0.25
v 0.28125 0.5625 0.25
v 0.28125 0.5625 0.4375
v 0.09375 0.5625 0.4375
v 0.09375 0.375 0.4375
v 0.28125 0.375 0.4375
v 0.28125 0.375 0.25
v 0.09375 0.375 0.25
v 0.09375 0.5625 0.25
v 0.09375 0.5625 0.4375
v 0.09375 0.375 0.4375
v 0.09375 0.375 0.25
v 0.28125 0.375 0.25
v 0.28125 0.375 0.4375
v 0.28125 0.5625 0.4375
v 0.28125 0.5625 0.25
v 0.09375 0.375 0.25
v 0.28125 0.375 0.25
v 0.28125 0.5625 0.25
v 0.09375 0.5625 0.25
v 0.09375 0.5625 0.4375
v 0.28125 0.5625 0.4375
v 0.28125 0.375 0.4375
v 0.09375 0.375 0.4375
vn -0.0 1.0 0.0
vn -0.0 1.0 0.0
vn -0.0 1.0 0.0
vn -0.0 1.0 0.0
vn -0.0 -1.0 0.0
vn -0.0 -1.0 0.0
vn -0.0 -1.0 0.0
vn -0.0 -1.0 0.0
vn -1.0 0.0 0.0
vn -1.0 0.0 0.0
vn -1.0 0.0 0.0
vn -1.0 0.0 0.0
vn 1.0 0.0 0.0
vn 1.0 0.0 0.0
vn 1.0 0.0 0.0
vn 1.0 0.0 0.0
vn -0.0 0.0 -1.0
vn -0.0 0.0 -1.0
vn -0.0 0.0 -1.0
vn -0.0 0.0 -1.0
vn -0.0 0.0 1.0
vn -0.0 0.0 1.0
vn -0.0 0.0 1.0
vn -0.0 0.0 1.0
vt 0.6875 0.9375
vt 0.875 0.9375
vt 0.875 0.75
vt 0.6875 0.75
vt 0.375 0.9375
vt 0.5625 0.9375
vt 0.5625 0.75
vt 0.375 0.75
vt 0.0625 0.9375
vt 0.25 0.9375
vt 0.25 0.75
vt 0.0625 0.75
vt 0.6875 0.625
vt 0.875 0.625
vt 0.875 0.4375
vt 0.6875 0.4375
vt 0.375 0.625
vt 0.5625 0.625
vt 0.5625 0.4375
vt 0.375 0.4375
vt 0.0625 0.625
vt 0.25 0.625
vt 0.25 0.4375
vt 0.0625 0.4375

g Gravedigger_Lantern
s 1
usemtl Gravedigger_Lantern
f 3/3/3 2/2/2 1/1/1 
f 4/4/4 3/3/3 1/1/1 
f 7/7/7 6/6/6 5/5/5 
f 8/8/8 7/7/7 5/5/5 
f 11/11/11 10/10/10 9/9/9 
f 12/12/12 11/11/11 9/9/9 
f 15/15/15 14/14/14 13/13/13 
f 16/16/16 15/15/15 13/13/13 
f 19/19/19 18/18/18 17/17/17 
f 20/20/20 19/19/19 17/17/17 
f 23/23/23 22/22/22 21/21/21 
f 24/24/24 23/23/23 21/21/21 

