# Blender v2.65 (sub 0) OBJ File: 'AngledDeck2013_20_4_Spin.blend'
# www.blender.org
vt 0 0 0 0
vt 1 1 1 1
mtllib AngledDeck2013_20_4_Spin.mtl
o Cube_Cube.001
v 0.088444 -0.492190 5.500000
v -0.107670 0.488390 5.500000
v 99.911560 20.492191 5.500000
v 100.107666 19.511608 5.500000
v 0.088444 -0.492190 5.750000
v -0.107670 0.488390 5.750000
v 99.911560 20.492191 5.750000
v 100.107666 19.511608 5.750000
v 1.951542 -9.807709 5.000000
v -1.970768 9.803907 5.000000
v 98.048462 29.807709 5.000000
v 101.970764 10.196093 5.000000
v 1.951542 -9.807709 5.500000
v -1.970768 9.803907 5.500000
v 98.048462 29.807709 5.500000
v 101.970764 10.196093 5.500000
v 0.000000 0.000000 0.000000
v 0.000000 20.000000 0.000000
v 100.000000 20.000000 0.000000
v 100.000000 0.000000 0.000000
v 0.000000 0.000000 5.000000
v 0.000000 20.000000 5.000000
v 100.000000 20.000000 5.000000
v 100.000000 0.000000 5.000000
vn -0.980581 -0.196114 0.000000
vn -0.196116 0.980581 0.000000
vn 0.980583 0.196106 0.000000
vn 0.196116 -0.980581 0.000000
vn 0.000000 0.000000 -1.000000
vn 0.000000 0.000000 1.000000
vn -0.980581 -0.196116 0.000000
vn 0.980581 0.196115 0.000000
vn -1.000000 0.000000 0.000000
vn 0.000000 1.000000 -0.000000
vn 1.000000 0.000000 -0.000000
vn 0.000000 -1.000000 0.000000
usemtl None
s off
f 2//1 1//1 5//1 6//1
f 6//2 7//2 3//2 2//2
f 7//3 8//3 4//3 3//3
f 1//4 4//4 8//4 5//4
f 1//5 2//5 3//5 4//5
f 8/2/6 7/2/6 6/2/6 5/2/6
f 13//7 14//7 10//7 9//7
f 14//2 15//2 11//2 10//2
f 15//8 16//8 12//8 11//8
f 16//4 13//4 9//4 12//4
f 9//5 10//5 11//5 12//5
f 16//6 15//6 14//6 13//6
f 21//9 22//9 18//9 17//9
f 22//10 23//10 19//10 18//10
f 23//11 24//11 20//11 19//11
f 24//12 21//12 17//12 20//12
f 17//5 18//5 19//5 20//5
f 24//6 23//6 22//6 21//6
