# Blender v2.65 (sub 0) OBJ File: 'AngledDeck2013_ Edge_2_4_Spin.blend'
# www.blender.org
vt 0 0 0 0
vt 1 1 1 1
mtllib AngledDeck2013_ Edge_2_4_Spin.mtl
o Cube_Cube.001
v 5.430689 8.576260 5.500000
v 4.744277 9.458780 5.500000
v 9.892330 10.488388 5.500000
v 10.088449 9.507809 5.500000
v 5.430689 8.576260 5.750000
v 4.744277 9.458780 5.750000
v 9.892330 10.488388 5.750000
v 10.088449 9.507809 5.750000
v 11.951547 0.192289 5.000000
v -1.776576 17.842749 5.000000
v 8.029232 19.803905 5.000000
v 11.951547 0.192289 5.500000
v -1.776576 17.842749 5.500000
v 8.029232 19.803905 5.500000
v 10.000000 0.000000 0.000000
v 7.500000 20.000000 0.000000
v 10.000000 20.000000 0.000000
v 10.000000 0.000000 5.000000
v 0.000000 20.000000 5.000000
v 10.000000 20.000000 5.000000
vn -0.789349 -0.613944 0.000000
vn -0.196116 0.980581 0.000000
vn 0.980580 0.196119 0.000000
vn 0.196116 -0.980581 0.000000
vn 0.000000 0.000000 -1.000000
vn 0.000000 0.000000 1.000000
vn -0.789352 -0.613940 0.000000
vn 0.980581 0.196116 0.000000
vn -0.776114 -0.242536 -0.582086
vn 0.000000 1.000000 -0.000000
vn 1.000000 0.000000 -0.000000
usemtl None
s off
f 2//1 1//1 5//1 6//1
f 6//2 7//2 3//2 2//2
f 7//3 8//3 4//3 3//3
f 1//4 4//4 8//4 5//4
f 1//5 2//5 3//5 4//5
f 8/2/6 7/2/6 6/2/6 5/2/6
f 12//7 13//7 10//7 9//7
f 13//2 14//2 11//2 10//2
f 14//8 12//8 9//8 11//8
f 9//5 10//5 11//5
f 12//6 14//6 13//6
f 18//9 19//9 16//9 15//9
f 19//10 20//10 17//10 16//10
f 20//11 18//11 15//11 17//11
f 15//5 16//5 17//5
f 18//6 20//6 19//6
