# Blender v2.65 (sub 0) OBJ File: 'AngledDeck2013_5_4_spin.blend'
# www.blender.org
vt 0 0 0 0
vt 1 1 1 1
mtllib AngledDeck2013_5_4_spin.mtl
o Cube_Cube.001
v 0.087583 4.507638 5.500000
v -0.108532 5.488219 5.500000
v 24.906740 10.491300 5.500000
v 25.102858 9.510718 5.500000
v 0.087583 4.507638 5.750000
v -0.108532 5.488219 5.750000
v 24.906740 10.491300 5.750000
v 25.102858 9.510718 5.750000
v 1.951365 -4.807768 5.000000
v -1.970977 14.803845 5.000000
v 23.043627 19.806814 5.000000
v 26.965969 0.195204 5.000000
v 1.951365 -4.807768 5.500001
v -1.970977 14.803845 5.500001
v 23.043627 19.806814 5.500000
v 26.965969 0.195204 5.500000
v 0.000000 0.000000 0.000000
v -0.000028 20.000000 0.000000
v 24.999971 20.000036 0.000000
v 25.000000 0.000035 0.000000
v 0.000000 0.000000 5.000000
v -0.000028 20.000000 5.000000
v 24.999971 20.000036 5.000000
v 25.000000 0.000035 5.000000
vn -0.980581 -0.196116 0.000000
vn -0.196117 0.980581 0.000000
vn 0.980580 0.196117 0.000000
vn 0.196117 -0.980581 0.000000
vn 0.000000 0.000000 -1.000000
vn 0.000000 0.000000 1.000000
vn -0.980581 -0.196117 0.000000
vn -0.196118 0.980580 0.000000
vn 0.980581 0.196117 0.000000
vn 0.196118 -0.980580 0.000000
vn -1.000000 -0.000001 0.000000
vn -0.000001 1.000000 0.000000
vn 1.000000 0.000001 0.000000
vn 0.000001 -1.000000 0.000000
usemtl None
s off
f 2//1 1//1 5//1 6//1
f 6//2 7//2 3//2 2//2
f 7//3 8//3 4//3 3//3
f 1//4 4//4 8//4 5//4
f 1//5 2//5 3//5 4//5
f 8/2/6 7/2/6 6/2/6 5/2/6
f 13//7 14//7 10//7 9//7
f 14//8 15//8 11//8 10//8
f 15//9 16//9 12//9 11//9
f 16//10 13//10 9//10 12//10
f 9//5 10//5 11//5 12//5
f 16//6 15//6 14//6 13//6
f 21//11 22//11 18//11 17//11
f 22//12 23//12 19//12 18//12
f 23//13 24//13 20//13 19//13
f 24//14 21//14 17//14 20//14
f 17//5 18//5 19//5 20//5
f 24//6 23//6 22//6 21//6
