# Blender v2.73 (sub 0) OBJ File: ''
# www.blender.org
o Cube.001
v 0.000000 5.000000 0.000000
v 5.000000 5.000000 0.000000
v 5.000000 0.000000 0.000000
v 0.000000 0.000000 0.000000
v 0.000000 5.000000 5.000000
v 5.000000 5.000000 5.000000
v 5.000000 0.000000 5.000000
v 0.000000 0.000000 5.000000
v 0.000000 5.000000 0.000000
v 5.000000 5.000000 0.000000
v 5.000000 0.000000 0.000000
v 0.000000 0.000000 0.000000
v 0.000000 5.000000 5.000000
v 5.000000 5.000000 5.000000
v 5.000000 0.000000 5.000000
v 0.000000 0.000000 5.000000
vt 0.5 0.4 0.2 0.5
vt 0.5 0.4 0.2 0.5
vt 0.5 0.4 0.2 0.5
vt 0.5 0.4 0.2 0.5
vt 0.5 0.4 0.2 0.5
vt 0.5 0.4 0.2 0.5
vt 0.5 0.4 0.2 0.5
vt 0.5 0.4 0.2 0.5
vn 0.000000 1.000000 0.000000
vn 1.000000 0.000000 0.000000
vn 0.000000 -1.000000 0.000000
vn -1.000000 0.000000 0.000000
vn 0.000000 0.000000 1.000000
s off
f 6//1 2//1 1//1
f 7//2 3//2 2//2
f 8//3 4//3 3//3
f 5//4 1//4 4//4
f 5//5 8//5 16//5
f 4//5 1//5 9//5
f 3//5 4//5 12//5
f 8//5 7//5 15//5
f 2//5 3//5 11//5
f 7//5 6//5 14//5
f 1//5 2//5 10//5
f 6//5 5//5 13//5
f 5//1 6//1 1//1
f 6//2 7//2 2//2
f 7//3 8//3 3//3
f 8//4 5//4 4//4
f 13//5 5//5 16//5
f 12//5 4//5 9//5
f 11//5 3//5 12//5
f 16//5 8//5 15//5
f 10//5 2//5 11//5
f 15//5 7//5 14//5
f 9//5 1//5 10//5
f 14//5 6//5 13//5
o Cube
v 0.000000 5.000000 0.000000
v 5.000000 5.000000 0.000000
v 5.000000 0.000000 0.000000
v 0.000000 0.000000 0.000000
v 0.000000 5.000000 5.000000
v 5.000000 5.000000 5.000000
v 5.000000 0.000000 5.000000
v 0.000000 0.000000 5.000000
vn 0.000000 0.000000 -1.000000
vn 0.000000 0.000000 1.000000
s off
f 18/1/6 19/2/6 20/3/6
f 23/4/7 22/5/7 21/6/7
f 17/7/6 18/1/6 20/3/6
f 24/8/7 23/4/7 21/6/7
