mtllib Gun36cmQuadYaw.mtl
o Mesh.007_Cylinder.003
v 7.016554 9.589783 4.076416
v 7.016557 10.195915 4.080871
v 7.445169 10.018381 4.079565
v 7.016559 9.580874 5.288683
v 7.257651 9.821958 5.290454
v 7.016561 9.921819 5.291189
v 7.622705 9.589780 4.076414
v 7.357513 9.580873 5.288682
v 7.445166 9.161180 4.073265
v 7.257650 9.339788 5.286911
v 7.016552 8.983649 4.071962
v 7.016558 9.239929 5.286178
v 6.587941 9.161183 4.073268
v 6.775467 9.339790 5.286913
v 6.410404 9.589786 4.076419
v 6.675605 9.580875 5.288685
v 6.587944 10.018385 4.079568
v 6.775471 9.821960 5.290456
v 6.587944 10.018385 4.079568
v 6.775471 9.821960 5.290456
v 7.016561 10.189531 4.949663
v 7.445172 10.011997 4.948356
v 7.622708 9.583396 4.945206
v 7.445169 9.154796 4.942057
v 7.016555 8.977265 4.940754
v 6.587944 9.154799 4.942060
v 6.410408 9.583402 4.945210
v 6.587948 10.012001 4.948359
v 6.587948 10.012001 4.948359
vn -0.000003 0.007348 -0.999973
vn 0.000004 -0.007349 0.999973
vn -0.000004 0.007349 -0.999973
vn 0.000004 -0.007350 0.999973
vn 0.000004 -0.007347 0.999973
vn -0.000004 0.007348 -0.999973
vn 0.000004 -0.007348 0.999973
vn 0.000000 0.000000 0.000000
vn 0.382687 0.923853 0.006787
vn 0.311552 0.747852 0.586219
vn 0.923880 0.382671 0.002809
vn 0.752144 0.307268 0.582980
vn 0.923878 -0.382678 -0.002815
vn 0.752143 -0.315808 0.578400
vn 0.382678 -0.923857 -0.006790
vn 0.311545 -0.756391 0.575163
vn -0.382688 -0.923853 -0.006787
vn -0.311548 -0.756387 0.575166
vn -0.923881 -0.382671 -0.002808
vn -0.752141 -0.315803 0.578405
vn -0.923877 0.382679 0.002816
vn -0.752136 0.307277 0.582986
vn -0.382680 0.923856 0.006790
vn -0.311541 0.747855 0.586221
usemtl 
s off
f 1//1 2//1 3//1
f 4//2 5//2 6//2
f 1//3 3//3 7//3
f 4//4 8//4 5//4
f 1//3 7//3 9//3
f 4//5 10//5 8//5
f 1//6 9//6 11//6
f 4//7 12//7 10//7
f 1//1 11//1 13//1
f 4//7 14//7 12//7
f 1//3 13//3 15//3
f 4//7 16//7 14//7
f 1//3 15//3 17//3
f 4//2 18//2 16//2
f 19//8 1//8 17//8
f 2//6 1//6 19//6
f 6//2 20//2 4//2
f 20//8 18//8 4//8
f 2//9 21//9 22//9 3//9
f 21//10 6//10 5//10 22//10
f 3//11 22//11 23//11 7//11
f 22//12 5//12 8//12 23//12
f 7//13 23//13 24//13 9//13
f 23//14 8//14 10//14 24//14
f 9//15 24//15 25//15 11//15
f 24//16 10//16 12//16 25//16
f 11//17 25//17 26//17 13//17
f 25//18 12//18 14//18 26//18
f 13//19 26//19 27//19 15//19
f 26//20 14//20 16//20 27//20
f 15//21 27//21 28//21 17//21
f 27//22 16//22 18//22 28//22
f 21//23 2//23 19//23 29//23
f 29//24 20//24 6//24 21//24
f 17//8 28//8 29//8 19//8
f 28//8 18//8 20//8 29//8
o Mesh.006_Cylinder.003_Cylinder
v 7.016537 5.499714 4.046360
v 7.016540 6.105849 4.050814
v 7.445152 5.928314 4.049507
v 7.016541 5.490806 5.258626
v 7.257633 5.731890 5.260397
v 7.016543 5.831751 5.261132
v 7.622688 5.499712 4.046357
v 7.357496 5.490804 5.258625
v 7.445148 5.071112 4.043208
v 7.257633 5.249720 5.256854
v 7.016535 4.893581 4.041905
v 7.016541 5.149861 5.256121
v 6.587923 5.071116 4.043211
v 6.775450 5.249723 5.256856
v 6.410387 5.499717 4.046362
v 6.675588 5.490807 5.258628
v 6.587927 5.928318 4.049511
v 6.775453 5.731892 5.260399
v 6.587927 5.928318 4.049511
v 6.775453 5.731892 5.260399
v 7.016543 6.099464 4.919605
v 7.445155 5.921930 4.918299
v 7.622691 5.493328 4.915149
v 7.445151 5.064727 4.912000
v 7.016538 4.887196 4.910697
v 6.587927 5.064731 4.912003
v 6.410391 5.493333 4.915154
v 6.587931 5.921934 4.918303
v 6.587931 5.921934 4.918303
vn -0.000005 0.007348 -0.999973
vn 0.000006 -0.007349 0.999973
vn 0.000006 -0.007348 0.999973
vn 0.382688 0.923853 0.006788
vn 0.311553 0.747852 0.586219
vn 0.923881 0.382670 0.002809
vn 0.752143 0.307269 0.582981
vn 0.923877 -0.382679 -0.002815
vn 0.752142 -0.315809 0.578400
vn 0.382681 -0.923856 -0.006791
vn 0.311547 -0.756389 0.575164
vn -0.382689 -0.923852 -0.006788
vn -0.311550 -0.756386 0.575167
vn -0.923880 -0.382671 -0.002808
vn -0.752140 -0.315804 0.578405
vn -0.923877 0.382678 0.002816
vn -0.752137 0.307275 0.582985
vn -0.382680 0.923856 0.006791
vn -0.311542 0.747855 0.586221
usemtl 
s off
f 30//25 31//25 32//25
f 33//26 34//26 35//26
f 30//6 32//6 36//6
f 33//7 37//7 34//7
f 30//3 36//3 38//3
f 33//2 39//2 37//2
f 30//3 38//3 40//3
f 33//27 41//27 39//27
f 30//3 40//3 42//3
f 33//7 43//7 41//7
f 30//3 42//3 44//3
f 33//7 45//7 43//7
f 30//3 44//3 46//3
f 33//2 47//2 45//2
f 48//8 30//8 46//8
f 31//6 30//6 48//6
f 35//2 49//2 33//2
f 49//8 47//8 33//8
f 31//28 50//28 51//28 32//28
f 50//29 35//29 34//29 51//29
f 32//30 51//30 52//30 36//30
f 51//31 34//31 37//31 52//31
f 36//32 52//32 53//32 38//32
f 52//33 37//33 39//33 53//33
f 38//34 53//34 54//34 40//34
f 53//35 39//35 41//35 54//35
f 40//36 54//36 55//36 42//36
f 54//37 41//37 43//37 55//37
f 42//38 55//38 56//38 44//38
f 55//39 43//39 45//39 56//39
f 44//40 56//40 57//40 46//40
f 56//41 45//41 47//41 57//41
f 50//42 31//42 48//42 58//42
f 58//43 49//43 35//43 50//43
f 46//8 57//8 58//8 48//8
f 57//8 47//8 49//8 58//8
o Mesh.005_Cylinder.004_Cylinder
v 9.819676 7.482911 4.060540
v 9.819679 8.089046 4.064994
v 10.248291 7.911510 4.063688
v 9.819681 7.474002 5.272807
v 10.060773 7.715087 5.274578
v 9.819682 7.814948 5.275312
v 10.425826 7.482908 4.060537
v 10.160635 7.474000 5.272806
v 10.248287 7.054309 4.057389
v 10.060771 7.232917 5.271034
v 9.819674 6.876777 4.056086
v 9.819679 7.133058 5.270301
v 9.391061 7.054313 4.057392
v 9.578588 7.232919 5.271036
v 9.213526 7.482913 4.060543
v 9.478726 7.474003 5.272809
v 9.391065 7.911514 4.063692
v 9.578590 7.715089 5.274580
v 9.391065 7.911514 4.063692
v 9.578590 7.715089 5.274580
v 9.819682 8.082662 4.933786
v 10.248294 7.905127 4.932480
v 10.425829 7.476524 4.929329
v 10.248290 7.047924 4.926180
v 9.819677 6.870392 4.924877
v 9.391065 7.047928 4.926184
v 9.213530 7.476529 4.929334
v 9.391068 7.905130 4.932483
v 9.391068 7.905130 4.932483
vn 0.382689 0.923852 0.006787
vn 0.311552 0.747851 0.586220
vn 0.923882 0.382668 0.002809
vn 0.752145 0.307267 0.582980
vn 0.923878 -0.382677 -0.002815
vn 0.382682 -0.923855 -0.006791
vn 0.311547 -0.756389 0.575165
vn -0.311548 -0.756386 0.575167
vn -0.923881 -0.382669 -0.002808
vn -0.752140 -0.315803 0.578406
vn -0.923878 0.382676 0.002816
vn -0.752138 0.307273 0.582985
vn -0.311541 0.747854 0.586222
usemtl 
s off
f 59//25 60//25 61//25
f 62//7 63//7 64//7
f 59//25 61//25 65//25
f 62//7 66//7 63//7
f 59//25 65//25 67//25
f 62//2 68//2 66//2
f 59//3 67//3 69//3
f 62//2 70//2 68//2
f 59//3 69//3 71//3
f 62//2 72//2 70//2
f 59//3 71//3 73//3
f 62//4 74//4 72//4
f 59//3 73//3 75//3
f 62//5 76//5 74//5
f 77//8 59//8 75//8
f 60//6 59//6 77//6
f 64//7 78//7 62//7
f 78//8 76//8 62//8
f 60//44 79//44 80//44 61//44
f 79//45 64//45 63//45 80//45
f 61//46 80//46 81//46 65//46
f 80//47 63//47 66//47 81//47
f 65//48 81//48 82//48 67//48
f 81//33 66//33 68//33 82//33
f 67//49 82//49 83//49 69//49
f 82//50 68//50 70//50 83//50
f 69//36 83//36 84//36 71//36
f 83//51 70//51 72//51 84//51
f 71//52 84//52 85//52 73//52
f 84//53 72//53 74//53 85//53
f 73//54 85//54 86//54 75//54
f 85//55 74//55 76//55 86//55
f 79//23 60//23 77//23 87//23
f 87//56 78//56 64//56 79//56
f 75//8 86//8 87//8 77//8
f 86//8 76//8 78//8 87//8
o Mesh.004_Cylinder.006_Cylinder
v 2.582496 7.537683 0.007700
v 2.582496 7.537683 0.007700
v 0.132913 7.537694 0.007710
v 0.132913 7.537694 0.007710
v 2.582512 7.538911 4.455254
v 2.582512 7.538911 4.455254
v 0.462330 7.538851 4.205107
v 0.462330 7.538851 4.205107
v 3.241271 2.727489 0.008879
v 3.241312 12.347871 0.006223
v 0.544824 4.338430 0.008592
v 0.544851 10.736954 0.006825
v 0.814347 4.728791 4.205988
v 0.814371 10.348908 4.204437
v 3.241284 3.177735 4.206276
v 3.241321 11.899944 4.203868
v 9.739120 2.697521 0.008863
v 9.739160 12.377784 0.006190
v 9.739134 3.177715 4.206260
v 9.739170 11.899908 4.203852
v 10.338066 7.538878 4.455238
v 10.338066 7.538878 4.455238
v 6.534983 7.537666 0.007684
v 6.534983 7.537666 0.007684
v 12.375693 4.338397 0.008559
v 12.375720 10.736887 0.006792
v 11.986418 4.638916 4.205956
v 11.986443 10.438688 4.204355
v 12.796498 7.537640 0.007674
v 12.796498 7.537640 0.007674
v 12.437168 7.538800 4.205071
v 12.437168 7.538800 4.205071
v 0.132927 7.538735 3.780355
v 0.132927 7.538735 3.780355
v 12.375707 4.339334 3.781204
v 12.375733 10.738032 3.779437
v 12.796512 7.538682 3.780318
v 12.796512 7.538682 3.780318
v 0.544836 4.339373 3.781237
v 0.544863 10.738094 3.779470
v 9.739131 2.698460 3.781508
v 9.739171 12.378929 3.778836
v 3.241283 2.702019 3.781524
v 3.241324 12.375425 3.778853
vn -0.000043 -0.000251 -1.000000
vn -0.000043 -0.000301 -1.000000
vn -0.040402 -0.063032 0.997193
vn -0.040402 0.063583 0.997158
vn -0.000004 -0.000276 -1.000000
vn -0.117158 -0.014365 0.993009
vn -0.117158 0.014914 0.993001
vn 0.000002 -0.056997 0.998374
vn 0.000002 0.057548 0.998343
vn -0.000004 -0.000246 -1.000000
vn -0.000004 -0.000306 -1.000000
vn 0.040794 -0.062533 0.997209
vn 0.040795 0.063083 0.997174
vn 0.000026 -0.000227 -1.000000
vn 0.000026 -0.000326 -1.000000
vn 0.118320 -0.018088 0.992811
vn 0.118321 0.018636 0.992801
vn -0.000002 -0.000276 -1.000000
vn -0.515960 -0.856608 -0.002783
vn -0.515952 0.856611 -0.003256
vn -0.367695 -0.590711 0.718235
vn -0.367690 0.591111 0.717908
vn -0.790919 -0.100366 0.603633
vn -0.790918 0.100706 0.603578
vn -0.991813 -0.127696 0.000037
vn -0.991812 0.127704 -0.000034
vn -0.000181 -0.664644 0.747160
vn -0.000176 0.665056 0.746793
vn -0.002580 -0.999991 -0.003251
vn -0.002571 0.999990 -0.003804
vn 0.528381 -0.849008 0.000209
vn 0.528388 0.849003 -0.000259
vn 0.375490 -0.591026 0.713929
vn 0.375495 0.591417 0.713603
vn 0.991461 -0.130407 0.000031
vn 0.991462 0.130399 -0.000041
vn 0.727745 -0.103795 0.677948
vn 0.727746 0.104163 0.677891
usemtl Material.006
s off
f 88//57 96//57 98//57
f 99//58 97//58 89//58
f 92//59 100//59 102//59
f 103//60 101//60 93//60
f 90//61 88//61 98//61
f 99//61 89//61 91//61
f 92//62 94//62 100//62
f 101//63 95//63 93//63
f 92//64 102//64 106//64 108//64
f 107//65 103//65 93//65 109//65
f 96//66 88//66 110//66 104//66
f 111//67 89//67 97//67 105//67
f 108//68 106//68 114//68
f 115//69 107//69 109//69
f 110//70 112//70 104//70
f 105//71 113//71 111//71
f 108//72 114//72 118//72
f 119//73 115//73 109//73
f 110//74 116//74 112//74
f 113//74 117//74 111//74
f 96//75 130//75 126//75 98//75
f 127//76 131//76 97//76 99//76
f 130//77 102//77 100//77 126//77
f 101//78 103//78 131//78 127//78
f 94//79 120//79 126//79 100//79
f 127//80 121//80 95//80 101//80
f 120//81 90//81 98//81 126//81
f 99//82 91//82 121//82 127//82
f 102//83 130//83 128//83 106//83
f 129//84 131//84 103//84 107//84
f 130//85 96//85 104//85 128//85
f 105//86 97//86 131//86 129//86
f 112//87 122//87 128//87 104//87
f 129//88 123//88 113//88 105//88
f 122//89 114//89 106//89 128//89
f 107//90 115//90 123//90 129//90
f 116//91 124//91 122//91 112//91
f 123//92 125//92 117//92 113//92
f 124//93 118//93 114//93 122//93
f 115//94 119//94 125//94 123//94
