mtllib GunYamato_YawPitch.mtl
o Cylinder.002_Cylinder.012
v 18.462175 16.910568 4.446326
v 18.462175 16.612709 2.612537
v 18.462175 15.893616 2.314678
v 18.462175 15.174521 2.612537
v 18.462175 14.876663 4.446326
v 18.462175 15.174521 5.905593
v 18.462175 15.893616 6.203451
v 18.462175 16.612709 5.905593
v 35.055786 16.670647 4.446328
v 35.055786 16.443060 3.896884
v 35.055786 15.893617 3.669296
v 35.055786 15.344172 3.896883
v 35.055786 15.116585 4.446327
v 35.055786 15.344172 4.995771
v 35.055786 15.893617 5.223358
v 35.055786 16.443060 4.995770
v 18.811909 15.893616 4.446326
v 23.838324 16.489529 3.850415
v 23.838324 16.736362 4.446327
v 23.838324 15.893616 3.603580
v 23.838324 15.297704 3.850415
v 23.838324 15.050869 4.446327
v 23.838324 15.297704 5.042239
v 23.838324 15.893616 5.289073
v 23.838324 16.489529 5.042238
v 23.595024 16.612709 2.994674
v 23.387039 16.910568 4.446290
v 23.637270 15.893616 2.699826
v 23.595024 15.174521 2.994674
v 23.387039 14.876663 4.446290
v 23.180071 15.174521 5.890805
v 23.137827 15.893616 6.185653
v 23.180073 16.612709 5.890805
v 35.045055 16.501133 4.446328
v 35.045055 16.323195 4.016748
v 35.045055 15.893616 3.838810
v 35.045055 15.464036 4.016747
v 35.045055 15.286098 4.446327
v 35.045055 15.464036 4.875907
v 35.045055 15.893616 5.053844
v 35.045055 16.323196 4.875906
v 24.331413 16.501133 4.446327
v 24.331413 16.323196 4.875906
v 24.331413 15.893616 5.053844
v 24.331413 15.464036 4.875907
v 24.331413 15.286098 4.446327
v 24.331413 15.464036 4.016747
v 24.331413 15.893616 3.838810
v 24.331413 16.323195 4.016748
v 23.858503 15.893616 4.446327
v 28.154318 16.489529 3.850415
v 28.154318 16.736362 4.446327
v 28.154318 15.893616 3.603580
v 28.154318 15.297704 3.850415
v 28.154318 15.050869 4.446327
v 28.154318 15.297704 5.042239
v 28.154318 15.893616 5.289073
v 28.154318 16.489529 5.042238
v 28.468262 16.443060 3.896883
v 28.468262 16.670647 4.446327
v 28.468262 15.893616 3.669296
v 28.468262 15.344172 3.896883
v 28.468262 15.116585 4.446327
v 28.468262 15.344172 4.995771
v 28.468262 15.893616 5.223358
v 28.468262 16.443060 4.995770
vn -0.944325 -0.324757 0.052750
vn -0.984595 -0.066912 0.161540
vn -0.984595 0.066912 0.161540
vn -0.944325 0.324757 0.052749
vn -0.943565 0.324495 -0.066234
vn -0.977571 0.080595 -0.194573
vn -0.977571 -0.080595 -0.194573
vn -0.943565 -0.324495 -0.066235
vn 0.006762 0.984008 -0.177995
vn 0.550298 0.819102 -0.162003
vn 0.068606 0.381855 -0.921672
vn 0.963724 0.127539 -0.234456
vn 0.068606 -0.381855 -0.921672
vn 0.963724 -0.127538 -0.234456
vn 0.006762 -0.984008 -0.177994
vn 0.550299 -0.819101 -0.162002
vn 0.000309 -0.979594 0.200988
vn 0.438345 -0.856325 0.273059
vn 0.003207 -0.380948 0.924591
vn 0.777460 -0.218031 0.589931
vn 0.003207 0.380948 0.924591
vn 0.777461 0.218030 0.589931
vn 0.438344 0.856325 0.273059
vn 0.000309 0.979594 0.200988
vn 0.997661 -0.063155 0.026160
vn 0.997661 -0.026160 0.063155
vn 0.997661 0.026160 0.063155
vn 0.997661 0.063155 0.026160
vn 0.997661 0.063155 -0.026160
vn 0.997661 0.026160 -0.063155
vn 0.997661 -0.026160 -0.063155
vn 0.997661 -0.063155 -0.026160
vn 0.000000 -0.923880 -0.382682
vn 0.000000 -0.382683 -0.923880
vn 0.000000 0.382683 -0.923880
vn 0.000000 0.923880 -0.382683
vn 0.000000 0.923880 0.382683
vn 0.000000 0.382683 0.923880
vn 0.000000 -0.382685 0.923879
vn -0.000000 -0.923879 0.382685
vn 0.764737 -0.595295 -0.246578
vn 0.764737 -0.246579 -0.595295
vn 0.764737 0.246579 -0.595295
vn 0.764737 0.595295 -0.246579
vn 0.764737 0.595295 0.246579
vn 0.764737 0.246579 0.595295
vn 0.764737 -0.246580 0.595295
vn 0.764737 -0.595295 0.246580
vn 0.000000 0.923880 -0.382682
vn 0.000000 -0.923880 -0.382683
vn 0.000000 -0.923880 0.382683
vn -0.000000 -0.382683 0.923880
vn 0.000000 0.923880 0.382682
vn 0.189872 0.907073 -0.375721
vn 0.189872 0.375722 -0.907073
vn 0.000000 0.382684 -0.923879
vn 0.189871 -0.375722 -0.907073
vn 0.189871 -0.907073 -0.375722
vn 0.189871 -0.907073 0.375722
vn 0.189871 -0.375722 0.907073
vn 0.189872 0.375722 0.907073
vn -0.000000 0.382684 0.923879
vn 0.189872 0.907073 0.375721
usemtl 
s off
f 17//1 1//1 2//1
f 17//2 2//2 3//2
f 17//3 3//3 4//3
f 17//4 4//4 5//4
f 17//5 5//5 6//5
f 17//6 6//6 7//6
f 17//7 7//7 8//7
f 8//8 1//8 17//8
f 1//9 27//9 26//9 2//9
f 27//10 19//10 18//10 26//10
f 2//11 26//11 28//11 3//11
f 26//12 18//12 20//12 28//12
f 3//13 28//13 29//13 4//13
f 28//14 20//14 21//14 29//14
f 4//15 29//15 30//15 5//15
f 29//16 21//16 22//16 30//16
f 5//17 30//17 31//17 6//17
f 30//18 22//18 23//18 31//18
f 6//19 31//19 32//19 7//19
f 31//20 23//20 24//20 32//20
f 7//21 32//21 33//21 8//21
f 32//22 24//22 25//22 33//22
f 19//23 27//23 33//23 25//23
f 27//24 1//24 8//24 33//24
f 9//25 34//25 35//25 10//25
f 10//26 35//26 36//26 11//26
f 11//27 36//27 37//27 12//27
f 12//28 37//28 38//28 13//28
f 13//29 38//29 39//29 14//29
f 14//30 39//30 40//30 15//30
f 15//31 40//31 41//31 16//31
f 16//32 41//32 34//32 9//32
f 34//33 41//33 43//33 42//33
f 41//34 40//34 44//34 43//34
f 40//35 39//35 45//35 44//35
f 39//36 38//36 46//36 45//36
f 38//37 37//37 47//37 46//37
f 37//38 36//38 48//38 47//38
f 36//39 35//39 49//39 48//39
f 35//40 34//40 42//40 49//40
f 43//41 50//41 42//41
f 44//42 50//42 43//42
f 45//43 50//43 44//43
f 46//44 50//44 45//44
f 47//45 50//45 46//45
f 48//46 50//46 47//46
f 49//47 50//47 48//47
f 42//48 50//48 49//48
f 19//49 52//49 51//49 18//49
f 18//35 51//35 53//35 20//35
f 20//34 53//34 54//34 21//34
f 21//50 54//50 55//50 22//50
f 22//51 55//51 56//51 23//51
f 23//52 56//52 57//52 24//52
f 24//38 57//38 58//38 25//38
f 52//53 19//53 25//53 58//53
f 52//54 60//54 59//54 51//54
f 60//36 9//36 10//36 59//36
f 51//55 59//55 61//55 53//55
f 59//56 10//56 11//56 61//56
f 53//57 61//57 62//57 54//57
f 61//34 11//34 12//34 62//34
f 54//58 62//58 63//58 55//58
f 62//50 12//50 13//50 63//50
f 55//59 63//59 64//59 56//59
f 63//51 13//51 14//51 64//51
f 56//60 64//60 65//60 57//60
f 64//52 14//52 15//52 65//52
f 57//61 65//61 66//61 58//61
f 65//62 15//62 16//62 66//62
f 9//37 60//37 66//37 16//37
f 60//63 52//63 58//63 66//63
o Cylinder.001_Cylinder.011
v 18.462175 20.658949 4.446326
v 18.462175 20.361090 2.612537
v 18.462175 19.641996 2.314678
v 18.462175 18.922903 2.612537
v 18.462175 18.625044 4.446326
v 18.462175 18.922903 5.905593
v 18.462175 19.641996 6.203451
v 18.462175 20.361090 5.905593
v 35.055786 20.419027 4.446328
v 35.055786 20.191441 3.896884
v 35.055786 19.641996 3.669296
v 35.055786 19.092552 3.896883
v 35.055786 18.864965 4.446327
v 35.055786 19.092552 4.995771
v 35.055786 19.641996 5.223358
v 35.055786 20.191441 4.995770
v 18.811909 19.641996 4.446326
v 23.838324 20.237907 3.850415
v 23.838324 20.484743 4.446327
v 23.838324 19.641996 3.603580
v 23.838324 19.046085 3.850415
v 23.838324 18.799250 4.446327
v 23.838324 19.046085 5.042239
v 23.838324 19.641996 5.289073
v 23.838324 20.237907 5.042238
v 23.595024 20.361090 2.994674
v 23.387039 20.658949 4.446290
v 23.637270 19.641996 2.699826
v 23.595024 18.922903 2.994674
v 23.387039 18.625044 4.446290
v 23.180071 18.922903 5.890805
v 23.137827 19.641996 6.185653
v 23.180073 20.361090 5.890805
v 35.045055 20.249514 4.446328
v 35.045055 20.071575 4.016748
v 35.045055 19.641996 3.838810
v 35.045055 19.212418 4.016747
v 35.045055 19.034479 4.446327
v 35.045055 19.212418 4.875907
v 35.045055 19.641996 5.053844
v 35.045055 20.071577 4.875906
v 24.331413 20.249514 4.446327
v 24.331413 20.071577 4.875906
v 24.331413 19.641996 5.053844
v 24.331413 19.212418 4.875907
v 24.331413 19.034479 4.446327
v 24.331413 19.212418 4.016747
v 24.331413 19.641996 3.838810
v 24.331413 20.071575 4.016748
v 23.858503 19.641996 4.446327
v 28.154318 20.237909 3.850415
v 28.154318 20.484743 4.446327
v 28.154318 19.641996 3.603580
v 28.154318 19.046085 3.850415
v 28.154318 18.799250 4.446327
v 28.154318 19.046085 5.042239
v 28.154318 19.641996 5.289073
v 28.154318 20.237909 5.042238
v 28.468262 20.191441 3.896883
v 28.468262 20.419027 4.446327
v 28.468262 19.641996 3.669296
v 28.468262 19.092552 3.896883
v 28.468262 18.864965 4.446327
v 28.468262 19.092552 4.995771
v 28.468262 19.641996 5.223358
v 28.468262 20.191441 4.995770
vn -0.944326 0.324757 0.052750
vn -0.943565 0.324495 -0.066235
vn 0.550299 0.819100 -0.162003
vn 0.963724 -0.127539 -0.234456
vn 0.006762 -0.984008 -0.177995
vn 0.550300 -0.819100 -0.162003
vn 0.438345 -0.856324 0.273060
vn 0.777461 0.218030 0.589930
vn 0.438346 0.856324 0.273060
vn 0.000000 0.923879 -0.382685
vn 0.000000 0.923879 0.382685
vn 0.764737 0.595295 -0.246580
vn 0.764737 0.595295 0.246580
vn -0.000000 0.382684 -0.923880
vn 0.000000 -0.382684 -0.923879
vn 0.000000 -0.923879 -0.382684
vn -0.000000 -0.382684 0.923880
vn -0.000000 0.382684 0.923880
vn -0.000000 0.923880 0.382684
vn 0.189870 -0.907073 -0.375722
vn 0.189870 -0.907073 0.375722
vn 0.189870 -0.375722 0.907073
usemtl 
s off
f 83//1 67//1 68//1
f 83//2 68//2 69//2
f 83//3 69//3 70//3
f 83//64 70//64 71//64
f 83//65 71//65 72//65
f 83//6 72//6 73//6
f 83//7 73//7 74//7
f 74//8 67//8 83//8
f 67//9 93//9 92//9 68//9
f 93//66 85//66 84//66 92//66
f 68//11 92//11 94//11 69//11
f 92//12 84//12 86//12 94//12
f 69//13 94//13 95//13 70//13
f 94//67 86//67 87//67 95//67
f 70//68 95//68 96//68 71//68
f 95//69 87//69 88//69 96//69
f 71//17 96//17 97//17 72//17
f 96//70 88//70 89//70 97//70
f 72//19 97//19 98//19 73//19
f 97//20 89//20 90//20 98//20
f 73//21 98//21 99//21 74//21
f 98//71 90//71 91//71 99//71
f 85//72 93//72 99//72 91//72
f 93//24 67//24 74//24 99//24
f 75//25 100//25 101//25 76//25
f 76//26 101//26 102//26 77//26
f 77//27 102//27 103//27 78//27
f 78//28 103//28 104//28 79//28
f 79//29 104//29 105//29 80//29
f 80//30 105//30 106//30 81//30
f 81//31 106//31 107//31 82//31
f 82//32 107//32 100//32 75//32
f 100//33 107//33 109//33 108//33
f 107//34 106//34 110//34 109//34
f 106//56 105//56 111//56 110//56
f 105//73 104//73 112//73 111//73
f 104//74 103//74 113//74 112//74
f 103//62 102//62 114//62 113//62
f 102//39 101//39 115//39 114//39
f 101//40 100//40 108//40 115//40
f 109//41 116//41 108//41
f 110//42 116//42 109//42
f 111//43 116//43 110//43
f 112//75 116//75 111//75
f 113//76 116//76 112//76
f 114//46 116//46 113//46
f 115//47 116//47 114//47
f 108//48 116//48 115//48
f 85//36 118//36 117//36 84//36
f 84//77 117//77 119//77 86//77
f 86//78 119//78 120//78 87//78
f 87//79 120//79 121//79 88//79
f 88//40 121//40 122//40 89//40
f 89//80 122//80 123//80 90//80
f 90//81 123//81 124//81 91//81
f 118//82 85//82 91//82 124//82
f 118//54 126//54 125//54 117//54
f 126//36 75//36 76//36 125//36
f 117//55 125//55 127//55 119//55
f 125//77 76//77 77//77 127//77
f 119//57 127//57 128//57 120//57
f 127//34 77//34 78//34 128//34
f 120//83 128//83 129//83 121//83
f 128//50 78//50 79//50 129//50
f 121//84 129//84 130//84 122//84
f 129//51 79//51 80//51 130//51
f 122//85 130//85 131//85 123//85
f 130//52 80//52 81//52 131//52
f 123//61 131//61 132//61 124//61
f 131//62 81//62 82//62 132//62
f 75//37 126//37 132//37 82//37
f 126//63 118//63 124//63 132//63
o Cylinder.003_Cylinder.008
v 18.462175 24.526726 4.446326
v 18.462175 24.228867 2.612537
v 18.462175 23.509773 2.314678
v 18.462175 22.790680 2.612537
v 18.462175 22.492821 4.446326
v 18.462175 22.790680 5.905593
v 18.462175 23.509773 6.203451
v 18.462175 24.228867 5.905593
v 35.055786 24.286804 4.446328
v 35.055786 24.059217 3.896884
v 35.055786 23.509773 3.669296
v 35.055786 22.960329 3.896883
v 35.055786 22.732742 4.446327
v 35.055786 22.960329 4.995771
v 35.055786 23.509773 5.223358
v 35.055786 24.059217 4.995770
v 18.811909 23.509773 4.446326
v 23.838324 24.105686 3.850415
v 23.838324 24.352520 4.446327
v 23.838324 23.509773 3.603580
v 23.838324 22.913862 3.850415
v 23.838324 22.667027 4.446327
v 23.838324 22.913862 5.042239
v 23.838324 23.509773 5.289073
v 23.838324 24.105686 5.042238
v 23.595024 24.228867 2.994674
v 23.387039 24.526726 4.446290
v 23.637270 23.509773 2.699826
v 23.595024 22.790680 2.994674
v 23.387039 22.492821 4.446290
v 23.180071 22.790680 5.890805
v 23.137827 23.509773 6.185653
v 23.180073 24.228867 5.890805
v 35.045055 24.117290 4.446328
v 35.045055 23.939352 4.016748
v 35.045055 23.509773 3.838810
v 35.045055 23.080194 4.016747
v 35.045055 22.902256 4.446327
v 35.045055 23.080194 4.875907
v 35.045055 23.509773 5.053844
v 35.045055 23.939354 4.875906
v 24.331413 24.117290 4.446327
v 24.331413 23.939354 4.875906
v 24.331413 23.509773 5.053844
v 24.331413 23.080194 4.875907
v 24.331413 22.902256 4.446327
v 24.331413 23.080194 4.016747
v 24.331413 23.509773 3.838810
v 24.331413 23.939352 4.016748
v 23.858503 23.509773 4.446327
v 28.154318 24.105686 3.850415
v 28.154318 24.352520 4.446327
v 28.154318 23.509773 3.603580
v 28.154318 22.913862 3.850415
v 28.154318 22.667027 4.446327
v 28.154318 22.913862 5.042239
v 28.154318 23.509773 5.289073
v 28.154318 24.105686 5.042238
v 28.468262 24.059217 3.896883
v 28.468262 24.286804 4.446327
v 28.468262 23.509773 3.669296
v 28.468262 22.960329 3.896883
v 28.468262 22.732742 4.446327
v 28.468262 22.960329 4.995771
v 28.468262 23.509773 5.223358
v 28.468262 24.059217 4.995770
usemtl 
s off
f 149//1 133//1 134//1
f 149//2 134//2 135//2
f 149//3 135//3 136//3
f 149//64 136//64 137//64
f 149//65 137//65 138//65
f 149//6 138//6 139//6
f 149//7 139//7 140//7
f 140//8 133//8 149//8
f 133//9 159//9 158//9 134//9
f 159//10 151//10 150//10 158//10
f 134//11 158//11 160//11 135//11
f 158//12 150//12 152//12 160//12
f 135//13 160//13 161//13 136//13
f 160//67 152//67 153//67 161//67
f 136//68 161//68 162//68 137//68
f 161//69 153//69 154//69 162//69
f 137//17 162//17 163//17 138//17
f 162//70 154//70 155//70 163//70
f 138//19 163//19 164//19 139//19
f 163//20 155//20 156//20 164//20
f 139//21 164//21 165//21 140//21
f 164//22 156//22 157//22 165//22
f 151//23 159//23 165//23 157//23
f 159//24 133//24 140//24 165//24
f 141//25 166//25 167//25 142//25
f 142//26 167//26 168//26 143//26
f 143//27 168//27 169//27 144//27
f 144//28 169//28 170//28 145//28
f 145//29 170//29 171//29 146//29
f 146//30 171//30 172//30 147//30
f 147//31 172//31 173//31 148//31
f 148//32 173//32 166//32 141//32
f 166//33 173//33 175//33 174//33
f 173//34 172//34 176//34 175//34
f 172//56 171//56 177//56 176//56
f 171//73 170//73 178//73 177//73
f 170//74 169//74 179//74 178//74
f 169//62 168//62 180//62 179//62
f 168//39 167//39 181//39 180//39
f 167//40 166//40 174//40 181//40
f 175//41 182//41 174//41
f 176//42 182//42 175//42
f 177//43 182//43 176//43
f 178//75 182//75 177//75
f 179//76 182//76 178//76
f 180//46 182//46 179//46
f 181//47 182//47 180//47
f 174//48 182//48 181//48
f 151//49 184//49 183//49 150//49
f 150//35 183//35 185//35 152//35
f 152//78 185//78 186//78 153//78
f 153//79 186//79 187//79 154//79
f 154//40 187//40 188//40 155//40
f 155//80 188//80 189//80 156//80
f 156//38 189//38 190//38 157//38
f 184//53 151//53 157//53 190//53
f 184//54 192//54 191//54 183//54
f 192//36 141//36 142//36 191//36
f 183//55 191//55 193//55 185//55
f 191//77 142//77 143//77 193//77
f 185//57 193//57 194//57 186//57
f 193//34 143//34 144//34 194//34
f 186//83 194//83 195//83 187//83
f 194//50 144//50 145//50 195//50
f 187//84 195//84 196//84 188//84
f 195//51 145//51 146//51 196//51
f 188//85 196//85 197//85 189//85
f 196//52 146//52 147//52 197//52
f 189//61 197//61 198//61 190//61
f 197//62 147//62 148//62 198//62
f 141//37 192//37 198//37 148//37
f 192//63 184//63 190//63 198//63
