# Blender v2.73 (sub 0) OBJ File: 'GunUS12.7cm.blend'
# www.blender.org
o Cube.019
v 6.499567 5.000000 0.608051
v 6.304732 4.020147 0.608051
v 6.304732 4.020147 0.539093
v 5.749887 3.189468 0.608051
v 5.749887 3.189468 0.539093
v 4.919504 2.634425 0.608051
v 4.919504 2.634425 0.539093
v 3.940001 2.439520 0.608051
v 3.940001 2.439520 0.539093
v 2.960497 2.634424 0.608051
v 2.960497 2.634424 0.539093
v 2.130114 3.189468 0.608051
v 2.130114 3.189468 0.539093
v 1.575271 4.020147 0.608051
v 1.575271 4.020147 0.539093
v 1.380435 5.000000 0.608051
v 1.380435 5.000000 0.539093
v 1.575270 5.979853 0.608051
v 1.575270 5.979853 0.539093
v 2.130114 6.810532 0.608051
v 2.130114 6.810532 0.539093
v 2.960496 7.365575 0.608051
v 2.960496 7.365575 0.539093
v 3.940001 7.560480 0.608051
v 3.940001 7.560480 0.539093
v 4.919505 7.365576 0.608051
v 4.919505 7.365576 0.539093
v 5.749888 6.810532 0.608051
v 5.749888 6.810532 0.539093
v 6.304731 5.979852 0.608051
v 6.499567 5.000000 0.539093
v 6.304731 5.979852 0.539093
v 2.179621 5.691104 0.470186
v 2.179621 5.691104 0.104925
v 2.206536 5.756084 0.104925
v 2.206536 5.756084 0.470186
v 2.044030 5.823395 0.104925
v 2.017115 5.758417 0.104925
v 1.854609 5.825728 0.104925
v 2.017115 5.758417 0.470186
v 2.044030 5.823395 0.470186
v 1.881525 5.890707 0.104925
v 3.248897 3.239628 0.470186
v 3.248897 3.239628 0.104925
v 3.183917 3.266543 0.104925
v 3.183917 3.266543 0.470186
v 3.116605 3.104037 0.104925
v 3.181584 3.077122 0.104925
v 3.114272 2.914615 0.104925
v 3.049293 2.941531 0.104925
v 3.181584 3.077122 0.470186
v 3.116605 3.104037 0.470186
v 5.673320 5.755072 0.470186
v 5.673320 5.755072 0.104925
v 5.700196 5.690053 0.104925
v 5.700196 5.690053 0.470186
v 5.862684 5.757267 0.104925
v 5.835808 5.822285 0.104925
v 5.998298 5.889498 0.104925
v 6.025174 5.824480 0.104925
v 5.862684 5.757267 0.470186
v 5.835808 5.822285 0.470186
v 2.627836 3.638101 0.470186
v 2.627836 3.638101 0.104925
v 2.578103 3.687834 0.104925
v 2.578103 3.687834 0.470186
v 2.453727 3.563458 0.104925
v 2.503460 3.513724 0.104925
v 2.379083 3.389348 0.104925
v 2.329350 3.439081 0.104925
v 2.503460 3.513724 0.470186
v 2.453727 3.563458 0.470186
v 5.838991 5.000026 0.538674
v 5.694439 4.273056 0.538674
v 5.694439 4.273056 0.082096
v 5.282791 3.656760 0.538674
v 5.282791 3.656760 0.082096
v 4.666715 3.244964 0.538674
v 4.666715 3.244964 0.082096
v 3.940003 3.100361 0.538674
v 3.940003 3.100361 0.082096
v 3.213292 3.244964 0.538674
v 3.213292 3.244964 0.082096
v 2.597215 3.656759 0.538674
v 2.597215 3.656759 0.082096
v 2.185566 4.273056 0.538674
v 2.185566 4.273056 0.082096
v 2.041014 5.000025 0.538674
v 2.041014 5.000025 0.082096
v 2.185566 5.726996 0.538674
v 2.185566 5.726997 0.082096
v 2.597215 6.343292 0.538674
v 3.213291 6.755088 0.538674
v 3.213291 6.755088 0.082096
v 3.940002 6.899693 0.538674
v 3.940002 6.899693 0.082096
v 4.666715 6.755089 0.538674
v 4.666715 6.755089 0.082096
v 5.282791 6.343293 0.538674
v 5.282791 6.343293 0.082096
v 5.694441 5.726996 0.538674
v 5.838991 5.000026 0.082096
v 5.694441 5.726996 0.082096
v 2.597215 6.343292 0.082096
v 2.049149 4.964830 0.470186
v 2.049149 4.964830 0.104925
v 2.049149 5.035163 0.104925
v 2.049149 5.035163 0.470186
v 1.873255 5.035163 0.104925
v 1.873255 4.964830 0.104925
v 1.697359 4.964830 0.104925
v 1.697359 5.035163 0.104925
v 1.873255 4.964830 0.470186
v 1.873255 5.035163 0.470186
v 3.903652 6.890874 0.470186
v 3.903652 6.890874 0.104925
v 3.973986 6.890919 0.104925
v 3.973986 6.890919 0.470186
v 3.973875 7.066813 0.104925
v 3.903542 7.066769 0.104925
v 3.903433 7.242664 0.104925
v 3.973766 7.242708 0.104925
v 3.903542 7.066769 0.470186
v 3.973875 7.066813 0.470186
v 6.190651 5.000004 0.150574
v 6.019330 4.138409 0.150574
v 6.019330 4.138409 0.013602
v 5.531449 3.407984 0.150574
v 5.531449 3.407984 0.013602
v 4.801285 2.919929 0.150574
v 4.801285 2.919929 0.013602
v 3.939998 2.748547 0.150574
v 3.939998 2.748547 0.013602
v 3.078710 2.919929 0.150574
v 3.078710 2.919929 0.013602
v 2.348545 3.407984 0.150574
v 2.348545 3.407984 0.013602
v 1.860666 4.138408 0.150574
v 1.860666 4.138408 0.013602
v 1.689344 5.000003 0.150574
v 1.689344 5.000003 0.013602
v 1.860665 5.861597 0.150574
v 1.860665 5.861597 0.013602
v 2.348545 6.592022 0.150574
v 2.348545 6.592022 0.013602
v 3.078709 7.080078 0.150574
v 3.078709 7.080078 0.013602
v 3.939997 7.251460 0.150574
v 3.939997 7.251460 0.013602
v 4.801285 7.080078 0.150574
v 4.801285 7.080078 0.013602
v 5.531450 6.592023 0.150574
v 5.531450 6.592023 0.013602
v 6.019330 5.861597 0.150574
v 6.190651 5.000004 0.013602
v 6.019330 5.861597 0.013602
v 3.975170 3.109155 0.470186
v 3.975170 3.109155 0.104925
v 3.904836 3.109155 0.104925
v 3.904836 3.109155 0.470186
v 3.904836 2.933260 0.104925
v 3.975170 2.933260 0.104925
v 3.975170 2.757365 0.104925
v 3.904836 2.757365 0.104925
v 3.975170 2.933260 0.470186
v 3.904836 2.933260 0.470186
v 4.634536 6.758976 0.470186
v 4.634536 6.758976 0.104925
v 4.699457 6.731916 0.104925
v 4.699457 6.731916 0.470186
v 4.767086 6.894281 0.104925
v 4.702163 6.921342 0.104925
v 4.769791 7.083706 0.104925
v 4.834713 7.056647 0.104925
v 4.767086 6.894281 0.470186
v 4.702163 6.921342 0.470186
v 5.830227 5.033681 0.470186
v 5.830227 5.033681 0.104925
v 5.830171 4.963323 0.104925
v 5.830171 4.963323 0.470186
v 6.006002 4.963181 0.104925
v 6.006059 5.033540 0.104925
v 6.181891 5.033398 0.104925
v 6.006059 5.033540 0.470186
v 6.006002 4.963181 0.470186
v 6.181834 4.963039 0.104925
v 2.206541 4.243912 0.470186
v 2.206541 4.243912 0.104925
v 2.179626 4.308890 0.104925
v 2.179626 4.308890 0.470186
v 2.017120 4.241578 0.104925
v 2.044035 4.176600 0.104925
v 1.881530 4.109287 0.104925
v 2.017120 4.241578 0.470186
v 2.044035 4.176600 0.470186
v 1.854615 4.174267 0.104925
v 3.183905 6.733460 0.470186
v 3.183905 6.733460 0.104925
v 3.248885 6.760375 0.104925
v 3.248885 6.760375 0.470186
v 3.181572 6.922881 0.104925
v 3.116593 6.895966 0.104925
v 3.049281 7.058472 0.104925
v 3.114260 7.085386 0.104925
v 3.116593 6.895966 0.470186
v 3.181572 6.922881 0.470186
v 5.302905 3.689378 0.470186
v 5.302905 3.689378 0.104925
v 5.253229 3.639571 0.104925
v 5.253229 3.639571 0.470186
v 5.377699 3.515334 0.104925
v 5.427377 3.565140 0.104925
v 5.551847 3.440903 0.104925
v 5.427377 3.565140 0.470186
v 5.377699 3.515334 0.470186
v 5.502170 3.391096 0.104925
v 4.696302 3.266753 0.470186
v 4.696302 3.266754 0.104925
v 4.631330 3.239811 0.104925
v 4.631330 3.239811 0.470186
v 4.698662 3.077323 0.104925
v 4.763634 3.104266 0.104925
v 4.830965 2.941778 0.104925
v 4.763634 3.104266 0.470186
v 4.698662 3.077323 0.470186
v 4.765993 2.914835 0.104925
v 5.251701 6.361954 0.470186
v 5.251701 6.361954 0.104925
v 5.301434 6.312203 0.104925
v 5.301434 6.312203 0.470186
v 5.425766 6.436581 0.104925
v 5.376033 6.486331 0.104925
v 5.500365 6.610708 0.104925
v 5.550097 6.560958 0.104925
v 5.425766 6.436581 0.470186
v 5.376033 6.486331 0.470186
v 5.699366 4.307883 0.470186
v 5.699366 4.307885 0.104925
v 5.672412 4.242898 0.104925
v 5.672412 4.242898 0.470186
v 5.834821 4.175490 0.104925
v 5.861773 4.240476 0.104925
v 6.024182 4.173068 0.104925
v 5.861773 4.240476 0.470186
v 5.834821 4.175490 0.470186
v 5.997229 4.108082 0.104925
v 2.578095 6.312164 0.470186
v 2.578095 6.312164 0.104925
v 2.627828 6.361897 0.104925
v 2.627828 6.361897 0.470186
v 2.503451 6.486274 0.104925
v 2.453718 6.436541 0.104925
v 2.329341 6.560917 0.104925
v 2.379075 6.610651 0.104925
v 2.453718 6.436541 0.470186
v 2.503451 6.486274 0.470186
vn 0.980800 -0.195000 0.000000
vn 0.831600 -0.555400 0.000000
vn 0.555700 -0.831400 0.000000
vn 0.195200 -0.980800 0.000000
vn -0.195200 -0.980800 0.000000
vn -0.555700 -0.831400 0.000000
vn -0.831600 -0.555400 0.000000
vn -0.980800 -0.195000 0.000000
vn -0.980800 0.195000 0.000000
vn -0.831600 0.555400 0.000000
vn -0.555700 0.831400 0.000000
vn -0.195200 0.980800 0.000000
vn 0.195200 0.980800 0.000000
vn 0.555700 0.831400 0.000000
vn 0.000000 -0.000000 1.000000
vn 0.980800 0.195000 0.000000
vn 0.831600 0.555400 0.000000
vn -0.000000 0.000000 -1.000000
vn 0.923900 -0.382700 0.000000
vn 0.382700 0.923900 0.000000
vn -0.382700 -0.923900 0.000000
vn -0.832400 0.344800 0.433900
vn -0.923900 0.382700 0.000000
vn -0.344800 -0.832400 0.433900
vn -0.924200 -0.382000 0.000000
vn 0.382200 -0.924100 0.000000
vn -0.382200 0.924100 0.000000
vn 0.832700 0.344200 0.433800
vn 0.707100 0.707100 0.000000
vn -0.707100 0.707100 0.000000
vn 0.707100 -0.707100 0.000000
vn -0.637100 -0.637100 0.433900
vn 1.000000 0.000000 0.000000
vn 0.000000 1.000000 0.000000
vn 0.000000 -1.000000 0.000000
vn -0.901000 0.000000 0.433900
vn 0.000600 -1.000000 0.000000
vn 1.000000 0.000600 0.000000
vn -1.000000 -0.000600 0.000000
vn -0.000600 0.901000 0.433900
vn -1.000000 0.000000 0.000000
vn 0.000000 -0.901000 0.433900
vn -0.384700 -0.923000 0.000000
vn 0.923100 -0.384500 0.000000
vn -0.923100 0.384500 0.000000
vn 0.346600 0.831600 0.433900
vn -1.000000 0.000800 0.000000
vn -0.000800 -1.000000 0.000000
vn 0.000800 1.000000 0.000000
vn 0.901000 -0.000700 0.433700
vn 0.923900 0.382700 0.000000
vn -0.382700 0.923900 0.000000
vn 0.382700 -0.923900 0.000000
vn -0.832400 -0.344800 0.433900
vn -0.923900 -0.382700 0.000000
vn -0.344800 0.832400 0.433900
vn -0.708000 0.706200 0.000000
vn -0.706400 -0.707800 0.000000
vn 0.706400 0.707800 0.000000
vn 0.637900 -0.636300 0.433800
vn -0.383100 0.923700 0.000000
vn -0.923800 -0.382800 0.000000
vn 0.923800 0.382800 0.000000
vn 0.345100 -0.832300 0.433900
vn -0.383000 0.923700 0.000000
vn -0.707200 -0.707000 0.000000
vn 0.707200 -0.707000 0.000000
vn -0.707200 0.707000 0.000000
vn 0.637200 0.637000 0.433800
vn -0.923700 0.383100 0.000000
vn -0.383300 -0.923600 0.000000
vn 0.383300 0.923600 0.000000
vn 0.832300 -0.345200 0.433800
vn 0.383400 0.923600 0.000000
vn -0.707100 -0.707100 0.000000
vn -0.637100 0.637100 0.433900
s off
f 1//1 2//1 3//1
f 2//2 4//2 5//2
f 4//3 6//3 7//3
f 6//4 8//4 9//4
f 8//5 10//5 11//5
f 10//6 12//6 13//6
f 12//7 14//7 15//7
f 14//8 16//8 17//8
f 16//9 18//9 19//9
f 18//10 20//10 21//10
f 20//11 22//11 23//11
f 22//12 24//12 25//12
f 24//13 26//13 27//13
f 26//14 28//14 29//14
f 16//15 1//15 18//15
f 30//16 1//16 31//16
f 28//17 30//17 32//17
f 31//18 3//18 17//18
f 31//1 1//1 3//1
f 3//2 2//2 5//2
f 5//3 4//3 7//3
f 7//4 6//4 9//4
f 9//5 8//5 11//5
f 11//6 10//6 13//6
f 13//7 12//7 15//7
f 15//8 14//8 17//8
f 17//9 16//9 19//9
f 19//10 18//10 21//10
f 21//11 20//11 23//11
f 23//12 22//12 25//12
f 25//13 24//13 27//13
f 27//14 26//14 29//14
f 12//15 4//15 2//15
f 10//15 8//15 6//15
f 6//15 12//15 10//15
f 2//15 1//15 14//15
f 28//15 20//15 18//15
f 26//15 24//15 22//15
f 20//15 28//15 26//15
f 18//15 1//15 30//15
f 12//15 6//15 4//15
f 2//15 14//15 12//15
f 26//15 22//15 20//15
f 18//15 30//15 28//15
f 1//15 16//15 14//15
f 32//16 30//16 31//16
f 29//17 28//17 32//17
f 19//18 32//18 31//18
f 21//18 27//18 29//18
f 27//18 23//18 25//18
f 29//18 19//18 21//18
f 3//18 15//18 17//18
f 7//18 11//18 13//18
f 11//18 7//18 9//18
f 15//18 3//18 5//18
f 19//18 29//18 32//18
f 27//18 21//18 23//18
f 5//18 13//18 15//18
f 13//18 5//18 7//18
f 17//18 19//18 31//18
f 33//19 34//19 35//19
f 36//20 35//20 37//20
f 37//18 38//18 39//18
f 40//15 33//15 36//15
f 35//18 34//18 38//18
f 41//20 37//20 42//20
f 40//21 38//21 34//21
f 39//22 40//22 41//22
f 38//21 40//21 39//21
f 36//19 33//19 35//19
f 41//20 36//20 37//20
f 42//18 37//18 39//18
f 41//15 40//15 36//15
f 37//18 35//18 38//18
f 33//21 40//21 34//21
f 42//22 39//22 41//22
f 43//20 44//20 45//20
f 46//23 45//23 47//23
f 48//18 49//18 50//18
f 51//15 43//15 46//15
f 45//18 44//18 48//18
f 52//23 47//23 50//23
f 51//19 48//19 44//19
f 49//24 51//24 52//24
f 48//19 51//19 49//19
f 46//20 43//20 45//20
f 52//23 46//23 47//23
f 47//18 48//18 50//18
f 52//15 51//15 46//15
f 47//18 45//18 48//18
f 43//19 51//19 44//19
f 50//24 49//24 52//24
f 53//25 54//25 55//25
f 56//26 55//26 57//26
f 58//18 59//18 60//18
f 62//15 53//15 61//15
f 54//18 58//18 57//18
f 61//26 57//26 60//26
f 62//27 58//27 54//27
f 60//28 59//28 62//28
f 58//27 62//27 59//27
f 56//25 53//25 55//25
f 61//26 56//26 57//26
f 57//18 58//18 60//18
f 61//15 53//15 56//15
f 55//18 54//18 57//18
f 53//27 62//27 54//27
f 61//28 60//28 62//28
f 63//29 64//29 65//29
f 66//30 65//30 67//30
f 68//18 69//18 70//18
f 71//15 63//15 66//15
f 64//18 68//18 67//18
f 72//30 67//30 70//30
f 71//31 68//31 64//31
f 69//32 71//32 72//32
f 68//31 71//31 69//31
f 66//29 63//29 65//29
f 72//30 66//30 67//30
f 67//18 68//18 70//18
f 72//15 71//15 66//15
f 65//18 64//18 67//18
f 63//31 71//31 64//31
f 70//32 69//32 72//32
f 73//1 74//1 75//1
f 74//2 76//2 77//2
f 76//3 78//3 79//3
f 78//4 80//4 81//4
f 80//5 82//5 83//5
f 82//6 84//6 85//6
f 85//7 84//7 86//7
f 87//8 86//8 88//8
f 89//9 88//9 90//9
f 91//10 90//10 92//10
f 92//11 93//11 94//11
f 93//12 95//12 96//12
f 95//13 97//13 98//13
f 97//14 99//14 100//14
f 88//15 73//15 90//15
f 101//16 73//16 102//16
f 99//17 101//17 103//17
f 87//18 75//18 85//18
f 102//1 73//1 75//1
f 75//2 74//2 77//2
f 77//3 76//3 79//3
f 79//4 78//4 81//4
f 81//5 80//5 83//5
f 83//6 82//6 85//6
f 87//7 85//7 86//7
f 89//8 87//8 88//8
f 91//9 89//9 90//9
f 104//10 91//10 92//10
f 104//11 92//11 94//11
f 94//12 93//12 96//12
f 96//13 95//13 98//13
f 98//14 97//14 100//14
f 84//15 76//15 74//15
f 82//15 80//15 78//15
f 76//15 84//15 82//15
f 74//15 88//15 86//15
f 99//15 92//15 90//15
f 97//15 95//15 93//15
f 92//15 99//15 97//15
f 90//15 73//15 101//15
f 82//15 78//15 76//15
f 74//15 86//15 84//15
f 97//15 93//15 92//15
f 90//15 101//15 99//15
f 73//15 88//15 74//15
f 103//16 101//16 102//16
f 100//17 99//17 103//17
f 89//18 103//18 102//18
f 94//18 98//18 100//18
f 98//18 94//18 96//18
f 100//18 91//18 104//18
f 102//18 87//18 89//18
f 79//18 83//18 85//18
f 83//18 79//18 81//18
f 85//18 75//18 77//18
f 89//18 91//18 103//18
f 100//18 104//18 94//18
f 102//18 75//18 87//18
f 85//18 77//18 79//18
f 103//18 91//18 100//18
f 105//33 106//33 107//33
f 108//34 107//34 109//34
f 110//18 111//18 112//18
f 113//15 105//15 108//15
f 106//18 110//18 109//18
f 114//34 109//34 112//34
f 113//35 110//35 106//35
f 111//36 113//36 114//36
f 110//35 113//35 111//35
f 108//33 105//33 107//33
f 114//34 108//34 109//34
f 109//18 110//18 112//18
f 114//15 113//15 108//15
f 107//18 106//18 109//18
f 105//35 113//35 106//35
f 112//36 111//36 114//36
f 115//37 116//37 117//37
f 118//38 117//38 119//38
f 120//18 121//18 122//18
f 123//15 115//15 118//15
f 116//18 120//18 119//18
f 124//38 119//38 122//38
f 123//39 120//39 116//39
f 121//40 123//40 124//40
f 120//39 123//39 121//39
f 118//37 115//37 117//37
f 124//38 118//38 119//38
f 119//18 120//18 122//18
f 124//15 123//15 118//15
f 117//18 116//18 119//18
f 115//39 123//39 116//39
f 122//40 121//40 124//40
f 125//1 126//1 127//1
f 126//2 128//2 129//2
f 128//3 130//3 131//3
f 130//4 132//4 133//4
f 132//5 134//5 135//5
f 134//6 136//6 137//6
f 136//7 138//7 139//7
f 138//8 140//8 141//8
f 140//9 142//9 143//9
f 142//10 144//10 145//10
f 144//11 146//11 147//11
f 146//12 148//12 149//12
f 148//13 150//13 151//13
f 150//14 152//14 153//14
f 140//15 125//15 142//15
f 154//16 125//16 155//16
f 152//17 154//17 156//17
f 155//18 127//18 141//18
f 155//1 125//1 127//1
f 127//2 126//2 129//2
f 129//3 128//3 131//3
f 131//4 130//4 133//4
f 133//5 132//5 135//5
f 135//6 134//6 137//6
f 137//7 136//7 139//7
f 139//8 138//8 141//8
f 141//9 140//9 143//9
f 143//10 142//10 145//10
f 145//11 144//11 147//11
f 147//12 146//12 149//12
f 149//13 148//13 151//13
f 151//14 150//14 153//14
f 136//15 128//15 126//15
f 134//15 132//15 130//15
f 130//15 136//15 134//15
f 126//15 125//15 138//15
f 152//15 144//15 142//15
f 150//15 148//15 146//15
f 144//15 152//15 150//15
f 142//15 125//15 154//15
f 136//15 130//15 128//15
f 126//15 138//15 136//15
f 150//15 146//15 144//15
f 142//15 154//15 152//15
f 125//15 140//15 138//15
f 156//16 154//16 155//16
f 153//17 152//17 156//17
f 143//18 156//18 155//18
f 145//18 151//18 153//18
f 151//18 147//18 149//18
f 153//18 143//18 145//18
f 127//18 139//18 141//18
f 131//18 135//18 137//18
f 135//18 131//18 133//18
f 139//18 127//18 129//18
f 143//18 153//18 156//18
f 151//18 145//18 147//18
f 129//18 137//18 139//18
f 137//18 129//18 131//18
f 141//18 143//18 155//18
f 157//34 158//34 159//34
f 160//41 159//41 161//41
f 162//18 163//18 164//18
f 165//15 157//15 160//15
f 158//18 162//18 161//18
f 166//41 161//41 164//41
f 165//33 162//33 158//33
f 163//42 165//42 166//42
f 162//33 165//33 163//33
f 160//34 157//34 159//34
f 166//41 160//41 161//41
f 161//18 162//18 164//18
f 166//15 165//15 160//15
f 159//18 158//18 161//18
f 157//33 165//33 158//33
f 164//42 163//42 166//42
f 167//43 168//43 169//43
f 170//44 169//44 171//44
f 172//18 173//18 174//18
f 176//15 167//15 175//15
f 168//18 172//18 171//18
f 175//44 171//44 174//44
f 176//45 172//45 168//45
f 174//46 173//46 176//46
f 172//45 176//45 173//45
f 170//43 167//43 169//43
f 175//44 170//44 171//44
f 171//18 172//18 174//18
f 175//15 167//15 170//15
f 169//18 168//18 171//18
f 167//45 176//45 168//45
f 175//46 174//46 176//46
f 177//47 178//47 179//47
f 180//48 179//48 181//48
f 181//18 182//18 183//18
f 184//15 177//15 180//15
f 179//18 178//18 182//18
f 185//48 181//48 186//48
f 184//49 182//49 178//49
f 183//50 184//50 185//50
f 182//49 184//49 183//49
f 180//47 177//47 179//47
f 185//48 180//48 181//48
f 186//18 181//18 183//18
f 185//15 184//15 180//15
f 181//18 179//18 182//18
f 177//49 184//49 178//49
f 186//50 183//50 185//50
f 187//51 188//51 189//51
f 190//52 189//52 191//52
f 191//18 192//18 193//18
f 195//15 187//15 194//15
f 188//18 192//18 191//18
f 194//52 191//52 196//52
f 195//53 192//53 188//53
f 193//54 195//54 194//54
f 192//53 195//53 193//53
f 190//51 187//51 189//51
f 194//52 190//52 191//52
f 196//18 191//18 193//18
f 194//15 187//15 190//15
f 189//18 188//18 191//18
f 187//53 195//53 188//53
f 196//54 193//54 194//54
f 197//53 198//53 199//53
f 200//51 199//51 201//51
f 202//18 203//18 204//18
f 205//15 197//15 200//15
f 199//18 198//18 202//18
f 206//51 201//51 204//51
f 205//55 202//55 198//55
f 204//56 203//56 205//56
f 202//55 205//55 203//55
f 200//53 197//53 199//53
f 206//51 200//51 201//51
f 201//18 202//18 204//18
f 206//15 205//15 200//15
f 201//18 199//18 202//18
f 197//55 205//55 198//55
f 206//56 204//56 205//56
f 207//57 208//57 209//57
f 210//58 209//58 211//58
f 211//18 212//18 213//18
f 214//15 207//15 210//15
f 209//18 208//18 212//18
f 215//58 211//58 216//58
f 214//59 212//59 208//59
f 213//60 214//60 215//60
f 212//59 214//59 213//59
f 210//57 207//57 209//57
f 215//58 210//58 211//58
f 216//18 211//18 213//18
f 215//15 214//15 210//15
f 211//18 209//18 212//18
f 207//59 214//59 208//59
f 216//60 213//60 215//60
f 217//61 218//61 219//61
f 220//62 219//62 221//62
f 221//18 222//18 223//18
f 224//15 217//15 220//15
f 219//18 218//18 222//18
f 225//62 221//62 226//62
f 217//63 224//63 222//63
f 223//64 224//64 225//64
f 222//63 224//63 223//63
f 220//65 217//65 219//65
f 225//62 220//62 221//62
f 226//18 221//18 223//18
f 225//15 224//15 220//15
f 221//18 219//18 222//18
f 218//63 217//63 222//63
f 226//64 223//64 225//64
f 227//66 228//66 229//66
f 230//67 229//67 231//67
f 232//18 233//18 234//18
f 236//15 227//15 235//15
f 228//18 232//18 231//18
f 235//67 231//67 234//67
f 236//68 232//68 228//68
f 234//69 233//69 236//69
f 232//68 236//68 233//68
f 230//66 227//66 229//66
f 235//67 230//67 231//67
f 231//18 232//18 234//18
f 235//15 227//15 230//15
f 229//18 228//18 231//18
f 227//68 236//68 228//68
f 235//69 234//69 236//69
f 237//70 238//70 239//70
f 240//71 239//71 241//71
f 241//18 242//18 243//18
f 244//15 237//15 240//15
f 239//18 238//18 242//18
f 245//71 241//71 246//71
f 237//72 244//72 242//72
f 243//73 244//73 245//73
f 242//72 244//72 243//72
f 240//70 237//70 239//70
f 245//71 240//71 241//71
f 246//18 241//18 243//18
f 245//15 244//15 240//15
f 241//18 239//18 242//18
f 238//74 237//74 242//74
f 246//73 243//73 245//73
f 247//31 248//31 249//31
f 250//29 249//29 251//29
f 252//18 253//18 254//18
f 255//15 247//15 250//15
f 249//18 248//18 252//18
f 256//29 251//29 254//29
f 255//75 252//75 248//75
f 254//76 253//76 255//76
f 252//75 255//75 253//75
f 250//31 247//31 249//31
f 256//29 250//29 251//29
f 251//18 252//18 254//18
f 256//15 255//15 250//15
f 251//18 249//18 252//18
f 247//75 255//75 248//75
f 256//76 254//76 255//76
