# Blender v2.73 (sub 0) OBJ File: 'GunUS12.7cm.blend'
# www.blender.org
o Yaw
v 6.449563 2.172652 1.978185
v 6.449563 2.172652 0.627644
v 2.612778 2.172651 4.552300
v 4.193268 3.932700 4.217293
v 4.193268 3.325160 4.217293
v 5.333002 2.172652 3.998712
v 4.193260 3.325160 2.230754
v 5.333002 3.325160 3.998712
v 4.193260 3.932700 2.230754
v 5.333001 3.932700 3.998712
v 0.764562 4.706878 0.627644
v 0.890270 4.056888 0.627645
v 0.890270 4.056888 4.552300
v 0.764562 4.706878 4.552300
v 1.198820 3.266570 0.627645
v 1.198820 3.266570 4.552300
v 1.667359 2.628552 0.627645
v 1.667359 2.628552 4.552300
v 2.135899 2.172651 0.627645
v 2.135899 2.172651 4.552300
v 2.612778 2.172651 0.627645
v 6.309993 3.325161 2.230754
v 6.309993 2.172652 2.230751
v 6.309993 3.932701 2.230751
v 4.193268 2.172652 4.217293
v 6.449562 7.827349 1.978185
v 6.449562 7.827349 0.627644
v 2.612777 7.827348 4.552300
v 4.193267 6.067300 4.217293
v 4.193267 6.674840 4.217293
v 5.333001 7.827349 3.998712
v 4.193259 6.674840 2.230754
v 5.333001 6.674840 3.998712
v 4.193259 6.067300 2.230754
v 5.333001 6.067300 3.998712
v 0.764562 5.293121 0.627644
v 0.890269 5.943111 0.627645
v 0.890269 5.943111 4.552300
v 0.764562 5.293121 4.552300
v 1.198819 6.733429 0.627645
v 1.198819 6.733429 4.552300
v 1.667358 7.371448 0.627645
v 1.667358 7.371448 4.552300
v 2.135898 7.827348 0.627645
v 2.135898 7.827348 4.552300
v 2.612777 7.827348 0.627645
v 1.198819 5.000000 4.552300
v 0.764563 5.000000 4.552300
v 2.612778 5.000000 4.552300
v 6.449562 5.000000 0.627645
v 5.333001 5.000000 3.998712
v 1.667359 5.000000 4.552300
v 0.890270 5.000000 4.552300
v 6.449562 5.000000 1.978185
v 2.177495 5.000000 4.552300
v 0.764563 5.000000 0.627645
v 2.178919 5.000000 0.627645
v 1.198819 5.000000 0.627645
v 1.667359 5.000000 0.627645
v 0.890270 5.000000 0.627645
v 2.612778 5.000000 0.627645
v 6.309992 6.674840 2.230754
v 6.309992 7.827349 2.230751
v 6.309992 5.000000 2.230751
v 6.309992 6.067300 2.230751
v 4.193268 5.000000 4.217293
v 4.193267 7.827349 4.217293
vn 0.000000 -1.000000 -0.000000
vn 1.000000 0.000000 -0.000000
vn -0.981800 -0.189900 0.000000
vn -0.931500 -0.363700 0.000000
vn -0.806000 -0.591900 0.000000
vn -0.697400 -0.716700 0.000000
vn 0.000000 0.000000 1.000000
vn 0.188400 0.000000 0.982100
vn -1.000000 0.000000 0.000000
vn -0.000000 0.000000 -1.000000
vn 0.875200 -0.000000 0.483700
vn 0.875300 0.000000 0.483700
vn -0.000000 1.000000 0.000000
vn 0.207400 0.000000 0.978300
vn -0.981800 0.189900 0.000000
vn -0.931500 0.363700 0.000000
vn -0.806000 0.591900 0.000000
vn -0.697400 0.716700 0.000000
s off
f 6//1 25//1 3//1 21//1 2//1 1//1 23//1
f 4//1 9//1 24//1 10//1
f 9//2 4//2 5//2 7//2
f 11//3 12//3 13//3 14//3
f 12//4 15//4 16//4 13//4
f 15//5 17//5 18//5 16//5
f 17//6 19//6 20//6 18//6
f 19//1 21//1 3//1 20//1
f 50//2 54//2 1//2 2//2
f 14//7 13//7 53//7 48//7
f 13//7 16//7 47//7 53//7
f 16//7 18//7 52//7 47//7
f 18//7 20//7 55//7 52//7
f 20//7 3//7 49//7 55//7
f 51//8 66//8 4//8 10//8
f 11//9 14//9 48//9 56//9
f 2//10 21//10 61//10 50//10
f 21//10 19//10 57//10 61//10
f 19//10 17//10 59//10 57//10
f 17//10 15//10 58//10 59//10
f 15//10 12//10 60//10 58//10
f 12//10 11//10 56//10 60//10
f 7//7 22//7 24//7 9//7
f 8//11 6//11 23//11 22//11
f 51//11 10//11 24//11 64//11
f 22//12 23//12 1//12 54//12 64//12 24//12
f 8//13 22//13 7//13 5//13
f 66//14 49//14 3//14 25//14 5//14 4//14
f 5//8 25//8 6//8 8//8
f 31//13 63//13 26//13 27//13 46//13 28//13 67//13
f 29//13 35//13 65//13 34//13
f 34//2 32//2 30//2 29//2
f 36//15 39//15 38//15 37//15
f 37//16 38//16 41//16 40//16
f 40//17 41//17 43//17 42//17
f 42//18 43//18 45//18 44//18
f 44//13 45//13 28//13 46//13
f 50//2 27//2 26//2 54//2
f 39//7 48//7 53//7 38//7
f 38//7 53//7 47//7 41//7
f 41//7 47//7 52//7 43//7
f 43//7 52//7 55//7 45//7
f 45//7 55//7 49//7 28//7
f 51//8 35//8 29//8 66//8
f 36//9 56//9 48//9 39//9
f 27//10 50//10 61//10 46//10
f 46//10 61//10 57//10 44//10
f 44//10 57//10 59//10 42//10
f 42//10 59//10 58//10 40//10
f 40//10 58//10 60//10 37//10
f 37//10 60//10 56//10 36//10
f 32//7 34//7 65//7 62//7
f 33//11 62//11 63//11 31//11
f 51//11 64//11 65//11 35//11
f 62//12 65//12 64//12 54//12 26//12 63//12
f 33//1 30//1 32//1 62//1
f 66//14 29//14 30//14 67//14 28//14 49//14
f 30//8 33//8 31//8 67//8
