# Blender v2.73 (sub 0) OBJ File: 'OTOMelaraA.blend'
# www.blender.org
mtllib OTOMelaraA.mtl
o Cube.016_Cube.026
v 0.951478 3.192728 -0.014537
v 1.132769 3.118230 -0.014537
v 1.090199 3.014636 -0.014537
v 0.908909 3.089133 -0.014537
v 1.132769 3.118230 0.433463
v 1.090199 3.014636 0.433463
v 1.334448 3.732590 -0.014537
v 1.473430 3.594387 -0.014537
v 1.394457 3.514969 -0.014537
v 1.255475 3.653172 -0.014537
v 1.473430 3.594387 0.433463
v 1.394457 3.514969 0.433463
v 1.894862 4.084802 -0.014537
v 1.970376 3.903933 -0.014537
v 1.867023 3.860782 -0.014537
v 1.791508 4.041651 -0.014537
v 1.970376 3.903933 0.433463
v 1.867023 3.860782 0.433463
v 2.547403 4.195743 -0.014537
v 2.547954 3.999743 -0.014537
v 2.435954 3.999429 -0.014537
v 2.435404 4.195428 -0.014537
v 2.547954 3.999743 0.433463
v 2.435954 3.999429 0.433463
v 3.192728 4.048522 -0.014537
v 3.118230 3.867231 -0.014537
v 3.014636 3.909801 -0.014537
v 3.089133 4.091091 -0.014537
v 3.118230 3.867231 0.433463
v 3.014636 3.909801 0.433463
v 3.732590 3.665552 -0.014537
v 3.594387 3.526570 -0.014537
v 3.514969 3.605543 -0.014537
v 3.653172 3.744525 -0.014537
v 3.594387 3.526570 0.433463
v 3.514969 3.605543 0.433463
v 4.084802 3.105138 -0.014537
v 3.903933 3.029624 -0.014537
v 3.860782 3.132977 -0.014537
v 4.041651 3.208492 -0.014537
v 3.903933 3.029624 0.433463
v 3.860782 3.132977 0.433463
v 4.195743 2.452597 -0.014537
v 3.999743 2.452046 -0.014537
v 3.999429 2.564046 -0.014537
v 4.195428 2.564596 -0.014537
v 3.999743 2.452046 0.433463
v 3.999429 2.564046 0.433463
v 4.266946 2.502933 0.377463
v 4.266946 2.502933 0.461463
v 4.132669 1.827879 0.377463
v 4.132669 1.827879 0.461463
v 3.750281 1.255596 0.377463
v 3.750281 1.255596 0.461463
v 3.177998 0.873208 0.377463
v 3.177998 0.873208 0.461463
v 2.502943 0.738931 0.377463
v 2.502943 0.738931 0.461463
v 1.827888 0.873208 0.377463
v 1.827888 0.873208 0.461463
v 1.255605 1.255595 0.377463
v 1.255605 1.255595 0.461463
v 0.873217 1.827879 0.377463
v 0.873217 1.827879 0.461463
v 0.738940 2.502933 0.377463
v 0.738940 2.502933 0.461463
v 0.873217 3.177987 0.377463
v 0.873217 3.177987 0.461463
v 1.255605 3.750271 0.377463
v 1.255605 3.750271 0.461463
v 1.827888 4.132659 0.377463
v 1.827888 4.132659 0.461463
v 2.502943 4.266935 0.377463
v 2.502943 4.266935 0.461463
v 3.177998 4.132659 0.377463
v 3.177998 4.132659 0.461463
v 3.750282 3.750271 0.377463
v 3.750282 3.750271 0.461463
v 4.132669 3.177987 0.377463
v 4.132669 3.177987 0.461463
v 0.808847 2.556189 -0.014537
v 1.004848 2.556507 -0.014537
v 1.005029 2.444507 -0.014537
v 0.809029 2.444189 -0.014537
v 1.004848 2.556507 0.433463
v 1.005029 2.444507 0.433463
v 0.917076 1.904756 -0.014537
v 1.098079 1.979951 -0.014537
v 1.141047 1.876521 -0.014537
v 0.960045 1.801327 -0.014537
v 1.098079 1.979951 0.433463
v 1.141047 1.876521 0.433463
v 1.265500 1.344696 -0.014537
v 1.404093 1.483289 -0.014537
v 1.483289 1.404093 -0.014537
v 1.344696 1.265500 -0.014537
v 1.404093 1.483289 0.433463
v 1.483289 1.404093 0.433463
v 1.263626 1.346700 -0.014537
v 1.402444 1.485069 -0.014537
v 1.481512 1.405744 -0.014537
v 1.342694 1.267376 -0.014537
v 1.402444 1.485069 0.433463
v 1.481512 1.405744 0.433463
v 1.804381 0.958660 -0.014537
v 1.879217 1.139811 -0.014537
v 1.982732 1.097047 -0.014537
v 1.907896 0.915896 -0.014537
v 1.879217 1.139811 0.433463
v 1.982732 1.097047 0.433463
v 2.446162 0.808962 -0.014537
v 2.446252 1.004962 -0.014537
v 2.558252 1.004911 -0.014537
v 2.558162 0.808911 -0.014537
v 2.446252 1.004962 0.433463
v 2.558252 1.004911 0.433463
v 3.103284 0.917895 -0.014537
v 3.027842 1.098794 -0.014537
v 3.131213 1.141904 -0.014537
v 3.206655 0.961004 -0.014537
v 3.027842 1.098794 0.433463
v 3.131213 1.141904 0.433463
v 3.664572 1.268683 -0.014537
v 3.525599 1.406895 -0.014537
v 3.604577 1.486308 -0.014537
v 3.743550 1.348096 -0.014537
v 3.525599 1.406895 0.433463
v 3.604577 1.486308 0.433463
v 4.048522 1.807273 -0.014537
v 3.867231 1.881770 -0.014537
v 3.909801 1.985364 -0.014537
v 4.091091 1.910867 -0.014537
v 3.867231 1.881770 0.433463
v 3.909801 1.985364 0.433463
v 4.014945 2.502933 -0.014537
v 4.014945 2.502933 0.433463
v 3.899851 1.924315 -0.014537
v 3.899851 1.924315 0.433463
v 3.572090 1.433787 -0.014537
v 3.572090 1.433787 0.433463
v 3.081562 1.106026 -0.014537
v 3.081562 1.106026 0.433463
v 2.502943 0.990931 -0.014537
v 2.502943 0.990931 0.433463
v 1.924325 1.106026 -0.014537
v 1.924325 1.106026 0.433463
v 1.433796 1.433786 -0.014537
v 1.433796 1.433786 0.433463
v 1.106035 1.924315 -0.014537
v 1.106035 1.924315 0.433463
v 0.990941 2.502933 -0.014537
v 0.990941 2.502933 0.433463
v 1.106035 3.081551 -0.014537
v 1.106035 3.081551 0.433463
v 1.433796 3.572080 -0.014537
v 1.433796 3.572080 0.433463
v 1.924325 3.899841 -0.014537
v 1.924325 3.899841 0.433463
v 2.502943 4.014935 -0.014537
v 2.502943 4.014935 0.433463
v 3.081561 3.899841 -0.014537
v 3.081561 3.899841 0.433463
v 3.572090 3.572080 -0.014537
v 3.572090 3.572080 0.433463
v 3.899851 3.081551 -0.014537
v 3.899851 3.081551 0.433463
vn 0.380100 0.925000 0.000000
vn 0.925000 -0.380100 0.000000
vn -0.847400 0.348200 0.400800
vn 0.000000 0.000000 -1.000000
vn -0.380100 -0.925000 0.000000
vn 0.705100 0.709100 0.000000
vn 0.709100 -0.705100 0.000000
vn -0.649600 0.646000 0.400800
vn -0.705100 -0.709100 0.000000
vn 0.922800 0.385300 0.000000
vn 0.385300 -0.922800 0.000000
vn -0.353000 0.845400 0.400800
vn -0.922800 -0.385300 0.000000
vn 1.000000 0.002800 0.000000
vn 0.002800 -1.000000 0.000000
vn -0.002600 0.916200 0.400800
vn -1.000000 -0.002800 0.000000
vn 0.348200 0.847400 0.400800
vn -0.925000 0.380100 0.000000
vn 0.646000 0.649600 0.400800
vn -0.709100 0.705100 0.000000
vn 0.845400 0.353000 0.400800
vn -0.385300 0.922800 0.000000
vn 0.916200 0.002600 0.400800
vn -0.002800 1.000000 0.000000
vn 0.980800 -0.195100 0.000000
vn 0.831500 -0.555600 0.000000
vn 0.555600 -0.831500 0.000000
vn 0.195100 -0.980800 0.000000
vn -0.195100 -0.980800 0.000000
vn -0.555600 -0.831500 0.000000
vn -0.831500 -0.555600 0.000000
vn -0.980800 -0.195100 0.000000
vn -0.980800 0.195100 0.000000
vn -0.831500 0.555600 0.000000
vn -0.555600 0.831500 0.000000
vn -0.195100 0.980800 0.000000
vn 0.195100 0.980800 0.000000
vn 0.555600 0.831500 0.000000
vn -0.000000 -0.000000 1.000000
vn 0.980800 0.195100 0.000000
vn 0.831500 0.555600 0.000000
vn -0.001600 1.000000 0.000000
vn 1.000000 0.001600 0.000000
vn -0.916200 -0.001500 0.400800
vn 0.001600 -1.000000 0.000000
vn -0.383600 0.923500 0.000000
vn 0.923500 0.383600 0.000000
vn -0.846100 -0.351500 0.400800
vn 0.383600 -0.923500 0.000000
vn -0.707100 0.707100 0.000000
vn 0.707100 0.707100 0.000000
vn -0.647800 -0.647800 0.400800
vn 0.707100 -0.707100 0.000000
vn -0.706000 0.708300 0.000000
vn 0.708300 0.706000 0.000000
vn -0.648900 -0.646800 0.400800
vn 0.706000 -0.708300 0.000000
vn -0.924200 0.381800 0.000000
vn 0.381800 0.924200 0.000000
vn -0.349800 -0.846700 0.400800
vn 0.924200 -0.381800 0.000000
vn -1.000000 0.000500 0.000000
vn 0.000500 1.000000 0.000000
vn -0.000400 -0.916200 0.400800
vn 1.000000 -0.000500 0.000000
vn -0.923000 -0.384900 0.000000
vn -0.384900 0.923000 0.000000
vn 0.352600 -0.845600 0.400800
vn 0.923000 0.384900 0.000000
vn -0.705200 -0.709000 0.000000
vn -0.709000 0.705200 0.000000
vn 0.649600 -0.646000 0.400800
vn 0.705200 0.709000 0.000000
vn 0.847400 -0.348200 0.400800
usemtl None
s off
f 5//1 2//1 1//1
f 5//2 6//2 3//2 2//2
f 6//3 5//3 1//3 4//3
f 1//4 2//4 3//4 4//4
f 3//5 6//5 4//5
f 11//6 8//6 7//6
f 11//7 12//7 9//7 8//7
f 12//8 11//8 7//8 10//8
f 7//4 8//4 9//4 10//4
f 9//9 12//9 10//9
f 17//10 14//10 13//10
f 17//11 18//11 15//11 14//11
f 18//12 17//12 13//12 16//12
f 13//4 14//4 15//4 16//4
f 15//13 18//13 16//13
f 23//14 20//14 19//14
f 23//15 24//15 21//15 20//15
f 24//16 23//16 19//16 22//16
f 19//4 20//4 21//4 22//4
f 21//17 24//17 22//17
f 29//2 26//2 25//2
f 29//5 30//5 27//5 26//5
f 30//18 29//18 25//18 28//18
f 25//4 26//4 27//4 28//4
f 27//19 30//19 28//19
f 35//7 32//7 31//7
f 35//9 36//9 33//9 32//9
f 36//20 35//20 31//20 34//20
f 31//4 32//4 33//4 34//4
f 33//21 36//21 34//21
f 41//11 38//11 37//11
f 41//13 42//13 39//13 38//13
f 42//22 41//22 37//22 40//22
f 37//4 38//4 39//4 40//4
f 39//23 42//23 40//23
f 47//15 44//15 43//15
f 47//17 48//17 45//17 44//17
f 48//24 47//24 43//24 46//24
f 43//4 44//4 45//4 46//4
f 45//25 48//25 46//25
f 49//26 50//26 52//26 51//26
f 51//27 52//27 54//27 53//27
f 53//28 54//28 56//28 55//28
f 55//29 56//29 58//29 57//29
f 57//30 58//30 60//30 59//30
f 59//31 60//31 62//31 61//31
f 61//32 62//32 64//32 63//32
f 63//33 64//33 66//33 65//33
f 65//34 66//34 68//34 67//34
f 67//35 68//35 70//35 69//35
f 69//36 70//36 72//36 71//36
f 71//37 72//37 74//37 73//37
f 73//38 74//38 76//38 75//38
f 75//39 76//39 78//39 77//39
f 52//40 50//40 80//40 78//40 76//40 74//40 72//40 70//40 68//40 66//40 64//40 62//40 60//40 58//40 56//40 54//40
f 79//41 80//41 50//41 49//41
f 77//42 78//42 80//42 79//42
f 49//4 51//4 53//4 55//4 57//4 59//4 61//4 63//4 65//4 67//4 69//4 71//4 73//4 75//4 77//4 79//4
f 85//43 82//43 81//43
f 85//44 86//44 83//44 82//44
f 86//45 85//45 81//45 84//45
f 81//4 82//4 83//4 84//4
f 83//46 86//46 84//46
f 91//47 88//47 87//47
f 91//48 92//48 89//48 88//48
f 92//49 91//49 87//49 90//49
f 87//4 88//4 89//4 90//4
f 89//50 92//50 90//50
f 97//51 94//51 93//51
f 97//52 98//52 95//52 94//52
f 98//53 97//53 93//53 96//53
f 93//4 94//4 95//4 96//4
f 95//54 98//54 96//54
f 103//55 100//55 99//55
f 103//56 104//56 101//56 100//56
f 104//57 103//57 99//57 102//57
f 99//4 100//4 101//4 102//4
f 101//58 104//58 102//58
f 109//59 106//59 105//59
f 109//60 110//60 107//60 106//60
f 110//61 109//61 105//61 108//61
f 105//4 106//4 107//4 108//4
f 107//62 110//62 108//62
f 115//63 112//63 111//63
f 115//64 116//64 113//64 112//64
f 116//65 115//65 111//65 114//65
f 111//4 112//4 113//4 114//4
f 113//66 116//66 114//66
f 121//67 118//67 117//67
f 121//68 122//68 119//68 118//68
f 122//69 121//69 117//69 120//69
f 117//4 118//4 119//4 120//4
f 119//70 122//70 120//70
f 127//71 124//71 123//71
f 127//72 128//72 125//72 124//72
f 128//73 127//73 123//73 126//73
f 123//4 124//4 125//4 126//4
f 125//74 128//74 126//74
f 133//5 130//5 129//5
f 133//19 134//19 131//19 130//19
f 134//75 133//75 129//75 132//75
f 129//4 130//4 131//4 132//4
f 131//1 134//1 132//1
f 135//26 136//26 138//26 137//26
f 137//27 138//27 140//27 139//27
f 139//28 140//28 142//28 141//28
f 141//29 142//29 144//29 143//29
f 143//30 144//30 146//30 145//30
f 145//31 146//31 148//31 147//31
f 147//32 148//32 150//32 149//32
f 149//33 150//33 152//33 151//33
f 151//34 152//34 154//34 153//34
f 153//35 154//35 156//35 155//35
f 155//36 156//36 158//36 157//36
f 157//37 158//37 160//37 159//37
f 159//38 160//38 162//38 161//38
f 161//39 162//39 164//39 163//39
f 138//40 136//40 166//40 164//40 162//40 160//40 158//40 156//40 154//40 152//40 150//40 148//40 146//40 144//40 142//40 140//40
f 165//41 166//41 136//41 135//41
f 163//42 164//42 166//42 165//42
f 135//4 137//4 139//4 141//4 143//4 145//4 147//4 149//4 151//4 153//4 155//4 157//4 159//4 161//4 163//4 165//4
