# Blender v2.73 (sub 0) OBJ File: 'OTOMelaraAYawPitch.blend'
# www.blender.org
mtllib OTOMelaraAYawPitch.mtl
o Cube.001_Cube
v 4.751517 2.695805 1.433653
v 5.087502 2.695805 1.433653
v 5.087502 2.304193 1.433653
v 4.751517 2.304193 1.433653
v 4.751517 2.695805 1.601580
v 5.087502 2.695805 1.601580
v 5.087502 2.304193 1.601580
v 4.751517 2.304193 1.601580
v 4.751517 2.695805 1.601580
v 5.087502 2.695805 1.601580
v 5.087502 2.695805 1.433653
v 4.751517 2.695805 1.433653
v 5.087502 2.695805 1.601580
v 5.087502 2.304193 1.601580
v 5.087502 2.304193 1.433653
v 5.087502 2.695805 1.433653
v 5.087502 2.304193 1.601580
v 4.751517 2.304193 1.601580
v 4.751517 2.304193 1.433653
v 5.087502 2.304193 1.433653
v 4.751517 2.304193 1.601580
v 4.751517 2.695805 1.601580
v 4.751517 2.695805 1.433653
v 4.751517 2.304193 1.433653
v 4.751517 2.695805 1.433653
v 5.087502 2.695805 1.433653
v 5.087502 2.304193 1.433653
v 4.751517 2.304193 1.433653
v 4.751517 2.304193 1.601580
v 5.087502 2.304193 1.601580
v 5.087502 2.695805 1.601580
v 4.751517 2.695805 1.601580
v 5.390637 2.695805 1.257553
v 5.390637 2.304193 1.257553
v 5.296455 2.695805 1.497801
v 5.469505 2.695805 1.405824
v 5.469505 2.304193 1.405824
v 5.296455 2.304193 1.497801
v 5.296455 2.695805 1.497801
v 5.469505 2.695805 1.405824
v 5.390637 2.695805 1.257553
v 5.469505 2.695805 1.405824
v 5.469505 2.304193 1.405824
v 5.390637 2.304193 1.257553
v 5.390637 2.695805 1.257553
v 5.469505 2.304193 1.405824
v 5.296455 2.304193 1.497801
v 5.390637 2.304193 1.257553
v 5.296455 2.304193 1.497801
v 5.296455 2.695805 1.497801
v 5.390637 2.695805 1.257553
v 5.390637 2.304193 1.257553
v 5.296455 2.304193 1.497801
v 5.469505 2.304193 1.405824
v 5.469505 2.695805 1.405824
v 5.296455 2.695805 1.497801
v 5.464063 2.695804 1.019081
v 5.464063 2.304192 1.019081
v 5.574320 2.695804 1.128407
v 5.574320 2.304192 1.128407
v 5.574320 2.695804 1.128407
v 5.464063 2.695804 1.019081
v 5.574320 2.695804 1.128407
v 5.574320 2.304192 1.128407
v 5.464063 2.304192 1.019081
v 5.464063 2.695804 1.019081
v 5.574320 2.304192 1.128407
v 5.464063 2.304192 1.019081
v 5.464063 2.695804 1.019081
v 5.464063 2.304192 1.019081
v 5.574320 2.304192 1.128407
v 5.574320 2.695804 1.128407
v 3.831655 2.304193 1.601580
v 3.831655 2.695805 1.601580
v 3.831655 2.695805 1.433653
v 3.831655 2.304193 1.433653
v 2.951005 2.304193 1.601580
v 2.951005 2.695805 1.601580
v 2.951005 2.695805 1.433653
v 2.951005 2.304193 1.433653
v 9.445362 2.499999 1.970185
v 9.305367 2.499999 1.970185
v 9.305367 2.415936 1.935346
v 9.445362 2.415936 1.935346
v 9.445362 2.381117 1.851236
v 9.445362 2.415936 1.767127
v 9.445362 2.499999 1.732288
v 9.445362 2.584061 1.767127
v 9.445362 2.618881 1.851236
v 9.445362 2.596131 1.851236
v 9.445362 2.567975 1.783223
v 9.445362 2.499999 1.755051
v 9.445362 2.432023 1.783223
v 9.445362 2.403867 1.851236
v 9.445362 2.432023 1.919250
v 9.445362 2.499999 1.947422
v 9.445362 2.567975 1.919250
v 9.445362 2.584061 1.935346
v 9.305367 2.584061 1.935346
v 9.305367 2.618881 1.851236
v 9.305367 2.596131 1.851236
v 9.305367 2.567975 1.919250
v 9.305367 2.499999 1.947422
v 9.305367 2.432023 1.919250
v 9.305367 2.403867 1.851236
v 9.305367 2.381117 1.851236
v 9.305367 2.432023 1.783223
v 9.305367 2.499999 1.755051
v 9.305367 2.567975 1.783223
v 9.305367 2.584061 1.767127
v 9.305367 2.499999 1.732288
v 9.305367 2.415936 1.767127
v 9.910141 2.499999 1.970185
v 9.742147 2.499999 1.970185
v 9.742147 2.415936 1.935346
v 9.910141 2.415936 1.935346
v 9.910141 2.381117 1.851236
v 9.910141 2.415936 1.767127
v 9.910141 2.499999 1.732288
v 9.910141 2.584061 1.767127
v 9.910141 2.618881 1.851236
v 9.910141 2.596131 1.851236
v 9.910141 2.567975 1.783223
v 9.910141 2.499999 1.755051
v 9.910141 2.432023 1.783223
v 9.910141 2.403867 1.851236
v 9.910141 2.432023 1.919250
v 9.910141 2.499999 1.947422
v 9.910141 2.567975 1.919250
v 9.910141 2.584061 1.935346
v 9.742147 2.584061 1.935346
v 9.742147 2.618881 1.851236
v 9.742147 2.596131 1.851236
v 9.742147 2.567975 1.919250
v 9.742147 2.499999 1.947422
v 9.742147 2.432023 1.919250
v 9.742147 2.403867 1.851236
v 9.742147 2.381117 1.851236
v 9.742147 2.432023 1.783223
v 9.742147 2.499999 1.755051
v 9.742147 2.567975 1.783223
v 9.742147 2.584061 1.767127
v 9.742147 2.499999 1.732288
v 9.742147 2.415936 1.767127
v 6.155510 2.499999 1.987266
v 5.770412 2.499999 2.011353
v 6.155510 2.447972 1.976911
v 5.770412 2.438759 1.999165
v 6.155510 2.403865 1.947424
v 5.770412 2.386843 1.964456
v 6.155510 2.374394 1.903293
v 5.770412 2.352153 1.912510
v 6.155510 2.364045 1.851236
v 5.770412 2.339972 1.851236
v 6.155510 2.374394 1.799180
v 5.770412 2.352153 1.789962
v 6.155510 2.403865 1.755049
v 5.770412 2.386843 1.738016
v 6.155510 2.447972 1.725561
v 5.770412 2.438759 1.703308
v 6.155510 2.499999 1.715207
v 5.770412 2.499999 1.691119
v 6.155510 2.552027 1.725561
v 5.770412 2.561239 1.703308
v 6.155510 2.596133 1.755049
v 5.770412 2.613156 1.738016
v 6.155510 2.625604 1.799180
v 5.770412 2.647846 1.789962
v 6.155510 2.635953 1.851236
v 5.770412 2.660027 1.851236
v 6.155510 2.625604 1.903293
v 5.770412 2.647846 1.912510
v 6.155510 2.596133 1.947424
v 5.770412 2.613156 1.964456
v 6.155510 2.552027 1.976912
v 5.770412 2.561239 1.999165
v 5.945520 2.499999 2.064855
v 5.945520 2.418296 2.048594
v 5.945520 2.349032 2.002288
v 5.945520 2.302751 1.932985
v 5.945520 2.286499 1.851236
v 5.945520 2.302751 1.769488
v 5.945520 2.349032 1.700185
v 5.945520 2.418296 1.653878
v 5.945520 2.499999 1.637617
v 5.945520 2.581702 1.653878
v 5.945520 2.650967 1.700185
v 5.945520 2.697248 1.769488
v 5.945520 2.713499 1.851236
v 5.945520 2.697248 1.932985
v 5.945520 2.650967 2.002288
v 5.945520 2.581702 2.048594
v 5.840525 2.499999 2.033157
v 5.840525 2.430420 2.019310
v 5.840525 2.371433 1.979874
v 5.840525 2.332020 1.920854
v 5.840525 2.318179 1.851236
v 5.840525 2.332020 1.781618
v 5.840525 2.371433 1.722599
v 5.840525 2.430420 1.683163
v 5.840525 2.499999 1.669315
v 5.840525 2.569579 1.683163
v 5.840525 2.628565 1.722599
v 5.840525 2.667979 1.781618
v 5.840525 2.681819 1.851236
v 5.840525 2.667979 1.920855
v 5.840525 2.628565 1.979874
v 5.840525 2.569579 2.019310
v 6.097026 2.439321 1.997809
v 6.097026 2.387880 1.963418
v 6.097026 2.353508 1.911949
v 6.097026 2.341439 1.851236
v 6.097026 2.353508 1.790524
v 6.097026 2.387880 1.739055
v 6.097026 2.439321 1.704664
v 6.097026 2.499999 1.692587
v 6.097026 2.560678 1.704664
v 6.097026 2.612118 1.739055
v 6.097026 2.646490 1.790524
v 6.097026 2.658560 1.851236
v 6.097026 2.646490 1.911949
v 6.097026 2.612118 1.963418
v 6.097026 2.560678 1.997809
v 6.097026 2.499999 2.009885
v 3.989484 2.438659 1.999157
v 4.301390 2.438659 1.999157
v 4.301390 2.438659 2.152531
v 3.989484 2.438659 2.152531
v 4.301390 2.561178 1.999157
v 4.301390 2.561178 2.152531
v 3.989484 2.561177 1.999157
v 3.989484 2.561177 2.152531
v 4.122198 2.461037 2.077523
v 4.321548 2.461037 2.077523
v 4.321548 2.461037 2.175481
v 4.122198 2.461037 2.175481
v 4.321548 2.539359 2.077523
v 4.321548 2.539359 2.175481
v 4.122198 2.539359 2.077523
v 4.122198 2.539359 2.175481
v 4.387904 2.499999 1.994242
v 9.910201 2.499999 1.957792
v 9.910201 2.575304 1.926582
v 4.387904 2.601062 1.952357
v 9.910201 2.606496 1.851235
v 4.387904 2.642925 1.851236
v 9.910201 2.575304 1.775889
v 4.387904 2.601062 1.750116
v 9.910201 2.499999 1.744679
v 4.387904 2.499999 1.708230
v 9.910201 2.424694 1.775889
v 4.387904 2.398934 1.750116
v 9.910201 2.393501 1.851236
v 4.387904 2.357072 1.851236
v 9.910201 2.427186 1.851236
v 9.910201 2.448513 1.799720
v 4.531642 2.448512 1.799720
v 4.531642 2.427186 1.851235
v 4.387904 2.398934 1.952357
v 9.910201 2.424694 1.926582
v 4.322659 2.626841 1.724323
v 4.322659 2.679380 1.851236
v 4.322659 2.373156 1.978149
v 4.322659 2.499999 2.030718
v 3.513613 2.499998 2.030718
v 3.513613 2.373156 1.978149
v 4.322659 2.626841 1.978149
v 4.322659 2.499999 1.671754
v 4.322659 2.373156 1.724323
v 4.322659 2.320617 1.851236
v 3.513613 2.626841 1.978149
v 3.513613 2.679380 1.851236
v 3.513613 2.320617 1.851236
v 3.513613 2.373156 1.724323
v 3.513613 2.626841 1.724323
v 3.513613 2.499998 1.671754
v 9.910201 2.499999 1.924089
v 9.910201 2.551486 1.902750
v 9.910201 2.572812 1.851235
v 9.910201 2.551486 1.799720
v 9.910201 2.499999 1.778382
v 9.910201 2.448513 1.902750
v 4.531642 2.551485 1.902750
v 4.531642 2.499999 1.924088
v 4.531642 2.448512 1.902750
v 4.531642 2.572812 1.851235
v 4.531642 2.551485 1.799720
v 4.531642 2.499999 1.778382
v 2.948001 2.499998 2.030718
v 2.948001 2.373156 1.978149
v 2.948001 2.626841 1.978149
v 2.948001 2.679380 1.851236
v 2.948001 2.320617 1.851236
v 2.948001 2.373156 1.724323
v 2.948001 2.626841 1.724323
v 2.948001 2.499998 1.671754
vn 0.000000 1.000000 0.000000
vn 0.000000 0.000000 1.000000
vn 0.000000 -1.000000 0.000000
vn 0.000000 0.000000 -1.000000
vn -0.502300 0.000000 -0.864700
vn 0.469300 0.000000 0.883000
vn 0.704100 0.000000 -0.710100
vn -0.955700 0.000000 -0.294300
vn 0.444800 0.000000 0.895600
vn 0.935500 0.000000 0.353400
vn -1.000000 0.000000 0.000000
vn 0.000000 -0.382900 0.923800
vn 1.000000 0.000000 0.000000
vn 0.000000 0.382900 0.923800
vn 0.000000 -0.924000 0.382500
vn 0.000000 -0.924000 -0.382500
vn 0.000000 -0.382900 -0.923800
vn 0.000000 0.382900 -0.923800
vn 0.000000 0.924000 -0.382500
vn 0.000000 0.924000 0.382500
vn -0.291700 -0.186700 0.938100
vn -0.291700 -0.531600 0.795200
vn -0.291600 -0.795500 0.531200
vn -0.291600 -0.938200 0.186500
vn -0.291600 -0.938200 -0.186500
vn -0.291600 -0.795500 -0.531200
vn -0.291700 -0.531600 -0.795200
vn -0.291700 -0.186700 -0.938100
vn -0.291700 0.186700 -0.938100
vn -0.291700 0.531600 -0.795200
vn -0.291600 0.795500 -0.531200
vn -0.291600 0.938200 -0.186500
vn -0.291600 0.938200 0.186500
vn -0.291600 0.795500 0.531200
vn -0.291700 0.186700 0.938100
vn -0.291700 0.531600 0.795200
vn 0.335200 0.523600 0.783200
vn 0.335300 0.183900 0.924000
vn 0.335100 0.783500 0.523200
vn 0.335100 0.924100 0.183700
vn 0.335100 0.924100 -0.183700
vn 0.335100 0.783500 -0.523200
vn 0.335200 0.523600 -0.783200
vn 0.335300 0.183900 -0.924000
vn 0.335300 -0.183900 -0.924000
vn 0.335200 -0.523600 -0.783200
vn 0.335100 -0.783500 -0.523200
vn 0.335100 -0.924100 -0.183700
vn 0.335100 -0.924100 0.183700
vn 0.335100 -0.783500 0.523200
vn 0.335200 -0.523600 0.783200
vn 0.335300 -0.183900 0.924000
vn -0.283900 0.532900 0.797100
vn -0.283900 0.187200 0.940400
vn -0.283800 0.797400 0.532500
vn -0.283800 0.940500 0.187000
vn -0.283800 0.940500 -0.187000
vn -0.283800 0.797400 -0.532500
vn -0.283900 0.532900 -0.797100
vn -0.283900 0.187200 -0.940400
vn -0.283900 -0.187200 -0.940400
vn -0.283900 -0.532900 -0.797100
vn -0.283800 -0.797400 -0.532500
vn -0.283800 -0.940500 -0.187000
vn -0.283800 -0.940500 0.187000
vn -0.283800 -0.797400 0.532500
vn -0.283900 -0.532900 0.797100
vn -0.283900 -0.187200 0.940400
vn 0.354700 -0.182500 0.917000
vn 0.354600 -0.519700 0.777300
vn 0.354500 -0.777600 0.519300
vn 0.354500 -0.917100 0.182300
vn 0.354500 -0.917100 -0.182300
vn 0.354500 -0.777600 -0.519300
vn 0.354600 -0.519700 -0.777300
vn 0.354700 -0.182500 -0.917000
vn 0.354700 0.182500 -0.917000
vn 0.354600 0.519700 -0.777300
vn 0.354500 0.777600 -0.519300
vn 0.354500 0.917100 -0.182300
vn 0.354500 0.917100 0.182300
vn 0.354500 0.777600 0.519300
vn 0.354700 0.182500 0.917000
vn 0.354600 0.519700 0.777300
vn 0.006100 0.382900 0.923800
vn 0.006100 0.923900 0.382500
vn 0.006100 0.923900 -0.382500
vn 0.006100 0.382900 -0.923800
vn 0.006100 -0.382900 -0.923800
vn 0.006100 -0.923900 -0.382500
vn 0.006100 -0.382900 0.923800
vn 0.006100 -0.923900 0.382500
vn 0.458700 0.821000 -0.339900
vn 0.458900 0.340200 0.820800
vn 0.458900 0.340200 -0.820800
vn 0.458900 -0.340200 -0.820800
vn 0.458700 -0.821000 -0.339900
vn 0.458700 -0.821000 0.339900
vn 0.458900 -0.340200 0.820800
vn 0.458700 0.821000 0.339900
usemtl None
s off
f 9//1 10//1 11//1 12//1
f 6//2 10//2 9//2 5//2
f 2//2 11//2 10//2 6//2
f 1//2 12//2 11//2 2//2
f 5//2 9//2 12//2 1//2
f 51//1 55//1 72//1
f 7//2 14//2 13//2 6//2
f 3//2 15//2 14//2 7//2
f 2//2 16//2 15//2 3//2
f 6//2 13//2 16//2 2//2
f 17//3 18//3 19//3 20//3
f 8//2 18//2 17//2 7//2
f 4//2 19//2 18//2 8//2
f 3//2 20//2 19//2 4//2
f 7//2 17//2 20//2 3//2
f 24//3 21//3 73//3 76//3
f 5//2 22//2 21//2 8//2
f 1//2 23//2 22//2 5//2
f 4//2 24//2 23//2 1//2
f 8//2 21//2 24//2 4//2
f 25//4 26//4 27//4 28//4
f 2//2 26//2 25//2 1//2
f 3//2 27//2 26//2 2//2
f 4//2 28//2 27//2 3//2
f 1//2 25//2 28//2 4//2
f 29//2 30//2 31//2 32//2
f 7//2 30//2 29//2 8//2
f 6//2 31//2 30//2 7//2
f 5//2 32//2 31//2 6//2
f 8//2 29//2 32//2 5//2
f 39//1 40//1 41//1 2//1
f 36//2 40//2 39//2 35//2
f 33//2 41//2 40//2 36//2
f 2//2 41//2 33//2
f 35//2 39//2 2//2
f 54//3 52//3 71//3
f 37//2 43//2 42//2 36//2
f 34//2 44//2 43//2 37//2
f 33//2 45//2 44//2 34//2
f 36//2 42//2 45//2 33//2
f 46//3 47//3 27//3 48//3
f 38//2 47//2 46//2 37//2
f 27//2 47//2 38//2
f 34//2 48//2 27//2
f 37//2 46//2 48//2 34//2
f 27//3 53//3 30//3
f 35//2 50//2 49//2 38//2
f 2//2 50//2 35//2
f 38//2 49//2 27//2
f 2//5 51//5 52//5 27//5
f 33//2 51//2 2//2
f 34//2 52//2 51//2 33//2
f 27//2 52//2 34//2
f 53//6 54//6 55//6 56//6
f 37//2 54//2 53//2 38//2
f 36//2 55//2 54//2 37//2
f 35//2 56//2 55//2 36//2
f 38//2 53//2 56//2 35//2
f 33//1 61//1 62//1
f 59//2 61//2 33//2
f 57//2 62//2 61//2 59//2
f 33//2 62//2 57//2
f 63//7 64//7 65//7 66//7
f 60//2 64//2 63//2 59//2
f 58//2 65//2 64//2 60//2
f 57//2 66//2 65//2 58//2
f 59//2 63//2 66//2 57//2
f 67//3 34//3 68//3
f 34//2 67//2 60//2
f 58//2 68//2 34//2
f 60//2 67//2 68//2 58//2
f 33//8 69//8 70//8 34//8
f 57//2 69//2 33//2
f 58//2 70//2 69//2 57//2
f 34//2 70//2 58//2
f 56//1 26//1 31//1
f 60//2 71//2 34//2
f 59//2 72//2 71//2 60//2
f 33//2 72//2 59//2
f 56//9 31//9 30//9 53//9
f 55//10 54//10 71//10 72//10
f 76//3 73//3 77//3 80//3
f 23//4 24//4 76//4 75//4
f 22//1 23//1 75//1 74//1
f 21//2 22//2 74//2 73//2
f 77//11 78//11 79//11 80//11
f 75//4 76//4 80//4 79//4
f 74//1 75//1 79//1 78//1
f 73//2 74//2 78//2 77//2
f 81//12 82//12 83//12 84//12
f 85//13 86//13 87//13 88//13 89//13 90//13 91//13 92//13 93//13 94//13
f 81//13 84//13 85//13 94//13 95//13 96//13 97//13 90//13 89//13 98//13
f 98//14 99//14 82//14 81//14
f 82//11 99//11 100//11 101//11 102//11 103//11 104//11 105//11 106//11 83//11
f 106//11 105//11 107//11 108//11 109//11 101//11 100//11 110//11 111//11 112//11
f 84//15 83//15 106//15 85//15
f 85//16 106//16 112//16 86//16
f 86//17 112//17 111//17 87//17
f 87//18 111//18 110//18 88//18
f 88//19 110//19 100//19 89//19
f 89//20 100//20 99//20 98//20
f 96//18 95//18 104//18 103//18
f 97//17 96//17 103//17 102//17
f 95//19 94//19 105//19 104//19
f 90//16 97//16 102//16 101//16
f 94//20 93//20 107//20 105//20
f 91//15 90//15 101//15 109//15
f 93//14 92//14 108//14 107//14
f 92//12 91//12 109//12 108//12
f 113//12 114//12 115//12 116//12
f 117//13 118//13 119//13 120//13 121//13 122//13 123//13 124//13 125//13 126//13
f 113//13 116//13 117//13 126//13 127//13 128//13 129//13 122//13 121//13 130//13
f 130//14 131//14 114//14 113//14
f 114//11 131//11 132//11 133//11 134//11 135//11 136//11 137//11 138//11 115//11
f 138//11 137//11 139//11 140//11 141//11 133//11 132//11 142//11 143//11 144//11
f 116//15 115//15 138//15 117//15
f 117//16 138//16 144//16 118//16
f 118//17 144//17 143//17 119//17
f 119//18 143//18 142//18 120//18
f 120//19 142//19 132//19 121//19
f 121//20 132//20 131//20 130//20
f 128//18 127//18 136//18 135//18
f 129//17 128//17 135//17 134//17
f 127//19 126//19 137//19 136//19
f 122//16 129//16 134//16 133//16
f 126//20 125//20 139//20 137//20
f 123//15 122//15 133//15 141//15
f 125//14 124//14 140//14 139//14
f 124//12 123//12 141//12 140//12
f 193//21 146//21 148//21 194//21
f 194//22 148//22 150//22 195//22
f 195//23 150//23 152//23 196//23
f 196//24 152//24 154//24 197//24
f 197//25 154//25 156//25 198//25
f 198//26 156//26 158//26 199//26
f 199//27 158//27 160//27 200//27
f 200//28 160//28 162//28 201//28
f 201//29 162//29 164//29 202//29
f 202//30 164//30 166//30 203//30
f 203//31 166//31 168//31 204//31
f 204//32 168//32 170//32 205//32
f 205//33 170//33 172//33 206//33
f 206//34 172//34 174//34 207//34
f 148//11 146//11 176//11 174//11 172//11 170//11 168//11 166//11 164//11 162//11 160//11 158//11 156//11 154//11 152//11 150//11
f 208//35 176//35 146//35 193//35
f 207//36 174//36 176//36 208//36
f 145//13 147//13 149//13 151//13 153//13 155//13 157//13 159//13 161//13 163//13 165//13 167//13 169//13 171//13 173//13 175//13
f 222//37 191//37 192//37 223//37
f 223//38 192//38 177//38 224//38
f 221//39 190//39 191//39 222//39
f 220//40 189//40 190//40 221//40
f 219//41 188//41 189//41 220//41
f 218//42 187//42 188//42 219//42
f 217//43 186//43 187//43 218//43
f 216//44 185//44 186//44 217//44
f 215//45 184//45 185//45 216//45
f 214//46 183//46 184//46 215//46
f 213//47 182//47 183//47 214//47
f 212//48 181//48 182//48 213//48
f 211//49 180//49 181//49 212//49
f 210//50 179//50 180//50 211//50
f 209//51 178//51 179//51 210//51
f 224//52 177//52 178//52 209//52
f 191//53 207//53 208//53 192//53
f 192//54 208//54 193//54 177//54
f 190//55 206//55 207//55 191//55
f 189//56 205//56 206//56 190//56
f 188//57 204//57 205//57 189//57
f 187//58 203//58 204//58 188//58
f 186//59 202//59 203//59 187//59
f 185//60 201//60 202//60 186//60
f 184//61 200//61 201//61 185//61
f 183//62 199//62 200//62 184//62
f 182//63 198//63 199//63 183//63
f 181//64 197//64 198//64 182//64
f 180//65 196//65 197//65 181//65
f 179//66 195//66 196//66 180//66
f 178//67 194//67 195//67 179//67
f 177//68 193//68 194//68 178//68
f 145//69 224//69 209//69 147//69
f 147//70 209//70 210//70 149//70
f 149//71 210//71 211//71 151//71
f 151//72 211//72 212//72 153//72
f 153//73 212//73 213//73 155//73
f 155//74 213//74 214//74 157//74
f 157//75 214//75 215//75 159//75
f 159//76 215//76 216//76 161//76
f 161//77 216//77 217//77 163//77
f 163//78 217//78 218//78 165//78
f 165//79 218//79 219//79 167//79
f 167//80 219//80 220//80 169//80
f 169//81 220//81 221//81 171//81
f 171//82 221//82 222//82 173//82
f 175//83 223//83 224//83 145//83
f 173//84 222//84 223//84 175//84
f 225//3 226//3 227//3 228//3
f 226//13 229//13 230//13 227//13
f 229//1 231//1 232//1 230//1
f 231//11 225//11 228//11 232//11
f 226//4 225//4 231//4
f 231//4 229//4 226//4
f 227//2 232//2 228//2
f 232//2 227//2 230//2
f 233//3 234//3 235//3 236//3
f 234//13 237//13 238//13 235//13
f 237//1 239//1 240//1 238//1
f 239//11 233//11 236//11 240//11
f 234//4 233//4 239//4
f 239//4 237//4 234//4
f 235//2 240//2 236//2
f 240//2 235//2 238//2
f 241//85 242//85 243//85 244//85
f 244//86 243//86 245//86 246//86
f 246//87 245//87 247//87 248//87
f 248//88 247//88 249//88 250//88
f 250//89 249//89 251//89 252//89
f 252//90 251//90 253//90 254//90
f 255//20 256//20 257//20 258//20
f 242//91 241//91 259//91 260//91
f 254//92 253//92 260//92 259//92
f 246//93 248//93 261//93 262//93
f 263//12 264//12 265//12 266//12
f 241//94 244//94 267//94 264//94
f 248//95 250//95 268//95 261//95
f 250//96 252//96 269//96 268//96
f 252//97 254//97 270//97 269//97
f 254//98 259//98 263//98 270//98
f 259//99 241//99 264//99 263//99
f 244//100 246//100 262//100 267//100
f 264//14 267//14 271//14 265//14
f 261//18 268//18 276//18 275//18
f 270//15 263//15 266//15 273//15
f 262//19 261//19 275//19 272//19
f 269//16 270//16 273//16 274//16
f 267//20 262//20 272//20 271//20
f 268//17 269//17 274//17 276//17
f 277//13 278//13 243//13 242//13
f 278//13 279//13 245//13 243//13
f 279//13 280//13 247//13 245//13
f 280//13 281//13 249//13 247//13
f 281//13 256//13 251//13 249//13
f 256//13 255//13 253//13 251//13
f 255//13 282//13 260//13 253//13
f 282//13 277//13 242//13 260//13
f 283//13 284//13 285//13
f 283//13 285//13 286//13
f 285//13 258//13 286//13
f 258//13 257//13 286//13
f 257//13 287//13 286//13
f 257//13 288//13 287//13
f 279//16 278//16 283//16 286//16
f 256//14 281//14 288//14 257//14
f 277//18 282//18 285//18 284//18
f 278//17 277//17 284//17 283//17
f 281//12 280//12 287//12 288//12
f 282//19 255//19 258//19 285//19
f 280//15 279//15 286//15 287//15
f 272//19 275//19 295//19 292//19
f 294//11 293//11 290//11 289//11 291//11 292//11 295//11 296//11
f 265//14 271//14 291//14 289//14
f 273//15 266//15 290//15 293//15
f 276//17 274//17 294//17 296//17
f 266//12 265//12 289//12 290//12
f 275//18 276//18 296//18 295//18
f 271//20 272//20 292//20 291//20
f 274//16 273//16 293//16 294//16
