# Blender v2.73 (sub 0) OBJ File: 'RailingTilt.blend'
# www.blender.org
mtllib RailingTilt.mtl
o Cylinder.001
v 0.200000 4.900001 0.000000
v 0.200000 4.900001 1.440000
v 0.170711 4.829289 1.440000
v 0.170711 4.829289 0.000000
v 0.100000 4.800001 1.440000
v 0.100000 4.800001 0.000000
v 0.029289 4.829289 1.440000
v 0.029289 4.829289 0.000000
v 0.000000 4.900001 1.440000
v 0.000000 4.900001 0.000000
v 0.029289 4.970712 1.440000
v 0.029289 4.970712 0.000000
v 0.100000 5.000000 1.440000
v 0.100000 5.000000 0.000000
v 0.170711 4.970712 1.440000
v 0.170711 4.970712 0.000000
vn 0.923900 -0.382700 0.000000
vn 0.382700 -0.923900 0.000000
vn -0.382700 -0.923900 0.000000
vn -0.923900 -0.382700 0.000000
vn -0.923900 0.382700 0.000000
vn -0.382700 0.923900 0.000000
vn 0.923900 0.382700 0.000000
vn 0.382700 0.923900 0.000000
vn 0.000000 0.000000 -1.000000
vn 0.000000 0.000000 1.000000
usemtl None
s off
f 1//1 2//1 3//1 4//1
f 4//2 3//2 5//2 6//2
f 6//3 5//3 7//3 8//3
f 8//4 7//4 9//4 10//4
f 10//5 9//5 11//5 12//5
f 12//6 11//6 13//6 14//6
f 2//7 1//7 16//7 15//7
f 14//8 13//8 15//8 16//8
f 8//9 10//9 12//9 14//9 16//9 1//9 4//9 6//9
f 2//10 15//10 13//10 11//10 9//10 7//10 5//10 3//10
o Cylinder.005
v 0.124121 4.875877 0.420000
v 4.875878 0.124120 0.420000
v 4.845879 0.094121 0.437574
v 0.094122 4.845878 0.437574
v 4.833452 0.081694 0.480000
v 0.081695 4.833451 0.480000
v 4.845879 0.094121 0.522426
v 0.094122 4.845878 0.522427
v 4.875878 0.124120 0.540000
v 0.124121 4.875877 0.540000
v 4.905878 0.154120 0.522426
v 0.154121 4.905877 0.522427
v 4.918305 0.166547 0.480000
v 0.166548 4.918304 0.480000
v 4.905878 0.154120 0.437574
v 0.154121 4.905877 0.437574
vn -0.270600 -0.270600 -0.923900
vn -0.653300 -0.653300 -0.382700
vn -0.653300 -0.653300 0.382700
vn -0.270600 -0.270600 0.923900
vn 0.270600 0.270600 0.923900
vn 0.653300 0.653300 0.382700
vn 0.270600 0.270600 -0.923900
vn 0.653300 0.653300 -0.382700
vn 0.707100 -0.707100 0.000000
vn -0.707100 0.707100 0.000000
usemtl None
s off
f 17//11 18//11 19//11 20//11
f 20//12 19//12 21//12 22//12
f 22//13 21//13 23//13 24//13
f 24//14 23//14 25//14 26//14
f 26//15 25//15 27//15 28//15
f 28//16 27//16 29//16 30//16
f 18//17 17//17 32//17 31//17
f 30//18 29//18 31//18 32//18
f 23//19 21//19 19//19 18//19 31//19 29//19 27//19 25//19
f 28//20 30//20 32//20 17//20 20//20 22//20 24//20 26//20
o Cylinder.003
v 0.124121 4.875877 0.900000
v 4.875878 0.124120 0.900000
v 4.845879 0.094121 0.917574
v 0.094122 4.845878 0.917574
v 4.833452 0.081694 0.960000
v 0.081695 4.833451 0.960000
v 4.845879 0.094121 1.002426
v 0.094122 4.845878 1.002427
v 4.875878 0.124120 1.020000
v 0.124121 4.875877 1.020000
v 4.905878 0.154120 1.002426
v 0.154121 4.905877 1.002427
v 4.918305 0.166547 0.960000
v 0.166548 4.918304 0.960000
v 4.905878 0.154120 0.917574
v 0.154121 4.905877 0.917574
vn -0.270600 -0.270600 -0.923900
vn -0.653300 -0.653300 -0.382700
vn -0.653300 -0.653300 0.382700
vn -0.270600 -0.270600 0.923900
vn 0.270600 0.270600 0.923900
vn 0.653300 0.653300 0.382700
vn 0.270600 0.270600 -0.923900
vn 0.653300 0.653300 -0.382700
vn 0.707100 -0.707100 0.000000
vn -0.707100 0.707100 0.000000
usemtl None
s off
f 33//21 34//21 35//21 36//21
f 36//22 35//22 37//22 38//22
f 38//23 37//23 39//23 40//23
f 40//24 39//24 41//24 42//24
f 42//25 41//25 43//25 44//25
f 44//26 43//26 45//26 46//26
f 34//27 33//27 48//27 47//27
f 46//28 45//28 47//28 48//28
f 39//29 37//29 35//29 34//29 47//29 45//29 43//29 41//29
f 44//30 46//30 48//30 33//30 36//30 38//30 40//30 42//30
o Cylinder.004
v 2.600000 2.500000 0.000000
v 2.600000 2.500000 1.440000
v 2.570711 2.429289 1.440000
v 2.570711 2.429289 0.000000
v 2.500000 2.400000 1.440000
v 2.500000 2.400000 0.000000
v 2.429289 2.429289 1.440000
v 2.429289 2.429289 0.000000
v 2.400000 2.500000 1.440000
v 2.400000 2.500000 0.000000
v 2.429289 2.570711 1.440000
v 2.429289 2.570711 0.000000
v 2.500000 2.600000 1.440000
v 2.500000 2.600000 0.000000
v 2.570711 2.570711 1.440000
v 2.570711 2.570711 0.000000
vn 0.923900 -0.382700 0.000000
vn 0.382700 -0.923900 0.000000
vn -0.382700 -0.923900 0.000000
vn -0.923900 -0.382700 0.000000
vn -0.923900 0.382700 0.000000
vn -0.382700 0.923900 0.000000
vn 0.923900 0.382700 0.000000
vn 0.382700 0.923900 0.000000
vn 0.000000 0.000000 -1.000000
vn 0.000000 0.000000 1.000000
usemtl None
s off
f 49//31 50//31 51//31 52//31
f 52//32 51//32 53//32 54//32
f 54//33 53//33 55//33 56//33
f 56//34 55//34 57//34 58//34
f 58//35 57//35 59//35 60//35
f 60//36 59//36 61//36 62//36
f 50//37 49//37 64//37 63//37
f 62//38 61//38 63//38 64//38
f 56//39 58//39 60//39 62//39 64//39 49//39 52//39 54//39
f 50//40 63//40 61//40 59//40 57//40 55//40 53//40 51//40
o Cylinder
v 5.000000 0.100000 0.000000
v 5.000000 0.100000 1.440000
v 4.970712 0.029289 1.440000
v 4.970712 0.029289 0.000000
v 4.900001 0.000000 1.440000
v 4.900001 0.000000 0.000000
v 4.829289 0.029289 1.440000
v 4.829289 0.029289 0.000000
v 4.800001 0.100000 1.440000
v 4.800001 0.100000 0.000000
v 4.829289 0.170711 1.440000
v 4.829289 0.170711 0.000000
v 4.900001 0.200000 1.440000
v 4.900001 0.200000 0.000000
v 4.970712 0.170711 1.440000
v 4.970712 0.170711 0.000000
vn 0.923900 -0.382700 0.000000
vn 0.382700 -0.923900 0.000000
vn -0.382700 -0.923900 0.000000
vn -0.923900 -0.382700 0.000000
vn -0.923900 0.382700 0.000000
vn -0.382700 0.923900 0.000000
vn 0.923900 0.382700 0.000000
vn 0.382700 0.923900 0.000000
vn 0.000000 0.000000 -1.000000
vn 0.000000 0.000000 1.000000
usemtl None
s off
f 65//41 66//41 67//41 68//41
f 68//42 67//42 69//42 70//42
f 70//43 69//43 71//43 72//43
f 72//44 71//44 73//44 74//44
f 74//45 73//45 75//45 76//45
f 76//46 75//46 77//46 78//46
f 66//47 65//47 80//47 79//47
f 78//48 77//48 79//48 80//48
f 72//49 74//49 76//49 78//49 80//49 65//49 68//49 70//49
f 66//50 79//50 77//50 75//50 73//50 71//50 69//50 67//50
o Cylinder.002
v 0.046339 4.953660 1.380000
v 4.953661 0.046337 1.380000
v 4.923661 0.016337 1.397574
v 0.016339 4.923660 1.397574
v 4.911235 0.003911 1.440000
v 0.003912 4.911233 1.440000
v 4.923661 0.016337 1.482426
v 0.016339 4.923660 1.482427
v 4.953661 0.046337 1.500000
v 0.046339 4.953660 1.500000
v 4.983661 0.076337 1.482426
v 0.076339 4.983659 1.482427
v 4.996088 0.088763 1.440000
v 0.088765 4.996086 1.440000
v 4.983661 0.076337 1.397574
v 0.076339 4.983659 1.397574
vn -0.270600 -0.270600 -0.923900
vn -0.653300 -0.653300 -0.382700
vn -0.653300 -0.653300 0.382700
vn -0.270600 -0.270600 0.923900
vn 0.270600 0.270600 0.923900
vn 0.653300 0.653300 0.382700
vn 0.270600 0.270600 -0.923900
vn 0.653300 0.653300 -0.382700
vn 0.707100 -0.707100 0.000000
vn -0.707100 0.707100 0.000000
usemtl None
s off
f 81//51 82//51 83//51 84//51
f 84//52 83//52 85//52 86//52
f 86//53 85//53 87//53 88//53
f 88//54 87//54 89//54 90//54
f 90//55 89//55 91//55 92//55
f 92//56 91//56 93//56 94//56
f 82//57 81//57 96//57 95//57
f 94//58 93//58 95//58 96//58
f 87//59 85//59 83//59 82//59 95//59 93//59 91//59 89//59
f 92//60 94//60 96//60 81//60 84//60 86//60 88//60 90//60
