# Blender v2.73 (sub 0) OBJ File: ''
# www.blender.org
o Cylinder.012_Cylinder.015
v 3.872674 4.563156 0.222873
v 3.409140 4.827007 0.947800
v 3.414412 4.842044 0.945698
v 3.877946 4.578194 0.220771
v 3.427140 4.850441 0.950781
v 3.890675 4.586588 0.225854
v 3.439869 4.847277 0.960071
v 3.903403 4.583425 0.235145
v 3.445141 4.834406 0.968127
v 3.908675 4.570554 0.243200
v 3.439869 4.819368 0.970229
v 3.903403 4.555518 0.245302
v 3.427140 4.810974 0.965146
v 3.890675 4.547122 0.240219
v 3.877947 4.550285 0.230929
v 3.414412 4.814137 0.955855
vn -0.791900 0.196800 -0.578000
vn -0.328000 0.800800 -0.501200
vn 0.328000 0.935600 -0.130800
vn 0.791900 0.522300 0.316200
vn 0.791900 -0.196900 0.578000
vn 0.328000 -0.800800 0.501200
vn -0.791900 -0.522400 -0.316200
vn -0.328000 -0.935600 0.130800
vn -0.515000 0.293200 0.805500
vn 0.515000 -0.293200 -0.805500
s off
f 1//1 2//1 3//1 4//1
f 4//2 3//2 5//2 6//2
f 6//3 5//3 7//3 8//3
f 8//4 7//4 9//4 10//4
f 10//5 9//5 11//5 12//5
f 12//6 11//6 13//6 14//6
f 2//7 1//7 15//7 16//7
f 14//8 13//8 16//8 15//8
f 13//9 11//9 9//9 7//9 5//9 3//9 2//9 16//9
f 14//10 15//10 1//10 4//10 6//10 8//10 10//10 12//10
o Cylinder.016_Cylinder.019
v 3.874843 4.398160 0.243750
v 3.701360 4.485355 0.243750
v 3.761417 4.485355 0.098759
v 3.884088 4.398160 0.221430
v 3.906408 4.485355 0.038702
v 3.906408 4.398160 0.212184
v 4.051400 4.485355 0.098759
v 3.928729 4.398160 0.221430
v 4.111457 4.485355 0.243750
v 3.937974 4.398160 0.243750
v 4.051400 4.485355 0.388741
v 3.928729 4.398160 0.266070
v 3.906408 4.485355 0.448798
v 3.906408 4.398160 0.275316
v 3.884088 4.398160 0.266070
v 3.761417 4.485355 0.388741
vn -0.441500 -0.878400 -0.182900
vn -0.182900 -0.878400 -0.441500
vn 0.182900 -0.878400 -0.441500
vn 0.441500 -0.878400 -0.182900
vn 0.441500 -0.878400 0.182900
vn 0.182900 -0.878400 0.441500
vn -0.441500 -0.878400 0.182900
vn -0.182900 -0.878400 0.441500
vn 0.000000 1.000000 0.000000
vn 0.000000 -1.000000 0.000000
s off
f 17//11 18//11 19//11 20//11
f 20//12 19//12 21//12 22//12
f 22//13 21//13 23//13 24//13
f 24//14 23//14 25//14 26//14
f 26//15 25//15 27//15 28//15
f 28//16 27//16 29//16 30//16
f 18//17 17//17 31//17 32//17
f 30//18 29//18 32//18 31//18
f 18//19 32//19 29//19 27//19 25//19 23//19 21//19 19//19
f 31//20 17//20 20//20 22//20 24//20 26//20 28//20 30//20
o Cylinder.009_Cylinder.011
v 3.903960 4.582552 0.253719
v 4.184915 4.820391 0.907170
v 4.190618 4.833556 0.899926
v 3.909663 4.595718 0.246476
v 4.204386 4.837433 0.892596
v 3.923431 4.599597 0.239145
v 4.218154 4.829751 0.889472
v 3.937199 4.591914 0.236021
v 4.223857 4.815010 0.892386
v 3.942902 4.577171 0.238935
v 4.218154 4.801844 0.899630
v 3.937199 4.564005 0.246179
v 4.204386 4.797966 0.906960
v 3.923431 4.560130 0.253510
v 3.909663 4.567811 0.256633
v 4.190618 4.805648 0.910084
vn -0.856600 0.478000 0.194300
vn -0.354800 0.917200 -0.181300
vn 0.354800 0.819100 -0.450700
vn 0.856600 0.241200 -0.456100
vn 0.856600 -0.478000 -0.194300
vn 0.354800 -0.917200 0.181300
vn -0.856600 -0.241200 0.456100
vn -0.354800 -0.819100 0.450700
vn 0.374600 0.317100 0.871300
vn -0.374600 -0.317100 -0.871300
s off
f 33//21 34//21 35//21 36//21
f 36//22 35//22 37//22 38//22
f 38//23 37//23 39//23 40//23
f 40//24 39//24 41//24 42//24
f 42//25 41//25 43//25 44//25
f 44//26 43//26 45//26 46//26
f 34//27 33//27 47//27 48//27
f 46//28 45//28 48//28 47//28
f 37//29 35//29 34//29 48//29 45//29 43//29 41//29 39//29
f 33//30 36//30 38//30 40//30 42//30 44//30 46//30 47//30
o Cylinder.014_Cylinder.017
v 3.693547 4.471251 0.358520
v 3.693547 4.538752 0.358520
v 3.674738 4.538752 0.313110
v 3.674738 4.471251 0.313110
v 3.975768 4.471251 0.012080
v 3.975768 4.538752 0.012080
v 4.021178 4.538752 0.030889
v 4.021178 4.471251 0.030889
v 4.119269 4.471251 0.128980
v 4.119269 4.538752 0.128980
v 4.138078 4.538752 0.174390
v 4.138078 4.471251 0.174390
v 4.138078 4.471251 0.313110
v 4.138078 4.538752 0.313110
v 4.119269 4.538752 0.358520
v 4.119269 4.471251 0.358520
v 4.021178 4.471251 0.456611
v 4.021178 4.538752 0.456611
v 3.975768 4.538752 0.475420
v 3.975768 4.471251 0.475420
v 3.837048 4.471251 0.475420
v 3.837048 4.538752 0.475420
v 3.791638 4.538752 0.456611
v 3.791638 4.471251 0.456611
v 3.791638 4.471251 0.030889
v 3.791638 4.538752 0.030889
v 3.837048 4.538752 0.012080
v 3.837048 4.471251 0.012080
v 3.674738 4.471251 0.174389
v 3.674738 4.538752 0.174389
v 3.693547 4.538752 0.128980
v 3.693547 4.471251 0.128980
v 3.662837 4.538752 0.243750
v 3.662837 4.471251 0.243750
v 3.734178 4.471251 0.071520
v 3.734178 4.538752 0.071520
v 3.906408 4.471251 0.000179
v 3.906408 4.538752 0.000179
v 4.078638 4.471251 0.071520
v 4.078638 4.538752 0.071520
v 4.149979 4.471251 0.243750
v 4.149979 4.538752 0.243750
v 4.078638 4.471251 0.415980
v 4.078638 4.538752 0.415980
v 3.906408 4.471251 0.487320
v 3.906408 4.538752 0.487320
v 3.734178 4.471251 0.415980
v 3.734178 4.538752 0.415980
vn -0.923900 0.000000 0.382700
vn 0.382700 0.000000 -0.923900
vn 0.923900 0.000000 -0.382700
vn 0.923900 0.000000 0.382700
vn 0.382700 0.000000 0.923900
vn -0.382700 0.000000 0.923900
vn -0.382700 0.000000 -0.923900
vn -0.923900 0.000000 -0.382700
vn -0.985600 0.000000 0.169100
vn -0.985600 0.000000 -0.169100
vn -0.577400 0.000000 -0.816500
vn -0.816500 0.000000 -0.577400
vn 0.169100 0.000000 -0.985600
vn -0.169100 0.000000 -0.985600
vn 0.816500 0.000000 -0.577400
vn 0.577400 0.000000 -0.816500
vn 0.985600 0.000000 0.169100
vn 0.985600 0.000000 -0.169100
vn 0.577400 0.000000 0.816500
vn 0.816500 0.000000 0.577400
vn -0.169100 0.000000 0.985600
vn 0.169100 0.000000 0.985600
vn -0.816500 0.000000 0.577400
vn -0.577400 0.000000 0.816500
vn 0.000000 1.000000 -0.000000
vn 0.000000 -1.000000 0.000000
s off
f 49//31 50//31 51//31 52//31
f 53//32 54//32 55//32 56//32
f 57//33 58//33 59//33 60//33
f 61//34 62//34 63//34 64//34
f 65//35 66//35 67//35 68//35
f 69//36 70//36 71//36 72//36
f 73//37 74//37 75//37 76//37
f 77//38 78//38 79//38 80//38
f 52//39 51//39 81//39 82//39
f 82//40 81//40 78//40 77//40
f 74//41 73//41 83//41 84//41
f 84//42 83//42 80//42 79//42
f 54//43 53//43 85//43 86//43
f 86//44 85//44 76//44 75//44
f 58//45 57//45 87//45 88//45
f 88//46 87//46 56//46 55//46
f 62//47 61//47 89//47 90//47
f 90//48 89//48 60//48 59//48
f 66//49 65//49 91//49 92//49
f 92//50 91//50 64//50 63//50
f 70//51 69//51 93//51 94//51
f 94//52 93//52 68//52 67//52
f 50//53 49//53 95//53 96//53
f 96//54 95//54 72//54 71//54
f 70//55 94//55 67//55 66//55 92//55 63//55 62//55 90//55 59//55 58//55 88//55 55//55 54//55 86//55 75//55 74//55 84//55 79//55 78//55 81//55 51//55 50//55 96//55 71//55
f 68//56 93//56 69//56 72//56 95//56 49//56 52//56 82//56 77//56 80//56 83//56 73//56 76//56 85//56 53//56 56//56 87//56 57//56 60//56 89//56 61//56 64//56 91//56 65//56
