# Blender v2.73 (sub 0) OBJ File: 'Swastika.blend'
# www.blender.org
mtllib Swastika.mtl
o Cube.005
v 2.111948 0.768269 0.100000
v 2.978302 1.634622 0.100000
v 3.367211 1.245714 0.100000
v 2.500857 0.379360 0.100000
v 2.111948 0.768269 0.200000
v 2.978302 1.634622 0.200000
v 3.367211 1.245714 0.200000
v 2.500857 0.379360 0.200000
v 1.634555 3.756052 0.100000
v 2.500618 4.622116 0.100000
v 2.889527 4.233207 0.100000
v 2.023464 3.367143 0.100000
v 1.634555 3.756052 0.200000
v 2.500618 4.622116 0.200000
v 2.889527 4.233207 0.200000
v 2.023464 3.367143 0.200000
v 1.245297 1.634205 0.100000
v 0.379091 2.500411 0.100000
v 0.767934 2.889254 0.100000
v 1.634140 2.023048 0.100000
v 1.245297 1.634205 0.200000
v 0.379091 2.500411 0.200000
v 0.767934 2.889254 0.200000
v 1.634140 2.023048 0.200000
v 4.232652 2.111331 0.100000
v 3.366446 2.977537 0.100000
v 3.755289 3.366380 0.100000
v 4.621495 2.500175 0.100000
v 4.232652 2.111331 0.200000
v 3.366446 2.977537 0.200000
v 3.755289 3.366380 0.200000
v 4.621495 2.500175 0.200000
v 3.366829 1.245508 0.100000
v 1.245508 3.366829 0.100000
v 1.634351 3.755672 0.100000
v 3.755672 1.634351 0.100000
v 3.366829 1.245508 0.200000
v 1.245508 3.366829 0.200000
v 1.634351 3.755672 0.200000
v 3.755672 1.634351 0.200000
v 1.245654 1.634563 0.100000
v 3.366617 3.755526 0.100000
v 3.755526 3.366617 0.100000
v 1.634563 1.245654 0.100000
v 1.245654 1.634563 0.200000
v 3.366617 3.755526 0.200000
v 3.755526 3.366617 0.200000
v 1.634563 1.245654 0.200000
vt 0 0 0 1
vt 0 0 0 1
vt 0 0 0 1
vt 0 0 0 1
vn -0.707100 0.707100 0.000000
vn 0.707100 0.707100 0.000000
vn 0.707100 -0.707100 0.000000
vn -0.707100 -0.707100 0.000000
vn 0.000000 0.000000 -1.000000
vn 0.000000 0.000000 1.000000
usemtl Cube
s off
f 6/1/1 2/2/1 1/3/1
f 7/1/2 3/2/2 2/3/2
f 8/1/3 4/2/3 3/3/3
f 5/1/4 1/2/4 4/3/4
f 2/1/5 3/2/5 4/3/5
f 8/4/6 7/1/6 6/2/6
f 14/1/1 10/2/1 9/3/1
f 15/1/2 11/2/2 10/3/2
f 16/1/3 12/2/3 11/3/3
f 13/1/4 9/2/4 12/3/4
f 9/4/5 10/1/5 11/2/5
f 15/1/6 14/2/6 13/3/6
f 22/1/4 18/2/4 17/3/4
f 23/1/1 19/2/1 18/3/1
f 24/1/2 20/2/2 19/3/2
f 21/1/3 17/2/3 20/3/3
f 18/1/5 19/2/5 20/3/5
f 23/1/6 22/2/6 21/3/6
f 30/1/4 26/2/4 25/3/4
f 31/1/1 27/2/1 26/3/1
f 32/1/2 28/2/2 27/3/2
f 29/1/3 25/2/3 28/3/3
f 25/4/5 26/1/5 27/2/5
f 31/1/6 30/2/6 29/3/6
f 38/1/4 34/2/4 33/3/4
f 39/1/1 35/2/1 34/3/1
f 40/1/2 36/2/2 35/3/2
f 37/1/3 33/2/3 36/3/3
f 33/4/5 34/1/5 35/2/5
f 39/1/6 38/2/6 37/3/6
f 46/1/1 42/2/1 41/3/1
f 47/1/2 43/2/2 42/3/2
f 48/1/3 44/2/3 43/3/3
f 45/1/4 41/2/4 44/3/4
f 42/1/5 43/2/5 44/3/5
f 47/1/6 46/2/6 45/3/6
f 5/4/1 6/1/1 1/3/1
f 6/4/2 7/1/2 2/3/2
f 7/4/3 8/1/3 3/3/3
f 8/4/4 5/1/4 4/3/4
f 1/4/5 2/1/5 4/3/5
f 5/3/6 8/4/6 6/2/6
f 13/4/1 14/1/1 9/3/1
f 14/4/2 15/1/2 10/3/2
f 15/4/3 16/1/3 11/3/3
f 16/4/4 13/1/4 12/3/4
f 12/3/5 9/4/5 11/2/5
f 16/4/6 15/1/6 13/3/6
f 21/4/4 22/1/4 17/3/4
f 22/4/1 23/1/1 18/3/1
f 23/4/2 24/1/2 19/3/2
f 24/4/3 21/1/3 20/3/3
f 17/4/5 18/1/5 20/3/5
f 24/4/6 23/1/6 21/3/6
f 29/4/4 30/1/4 25/3/4
f 30/4/1 31/1/1 26/3/1
f 31/4/2 32/1/2 27/3/2
f 32/4/3 29/1/3 28/3/3
f 28/3/5 25/4/5 27/2/5
f 32/4/6 31/1/6 29/3/6
f 37/4/4 38/1/4 33/3/4
f 38/4/1 39/1/1 34/3/1
f 39/4/2 40/1/2 35/3/2
f 40/4/3 37/1/3 36/3/3
f 36/3/5 33/4/5 35/2/5
f 40/4/6 39/1/6 37/3/6
f 45/4/1 46/1/1 41/3/1
f 46/4/2 47/1/2 42/3/2
f 47/4/3 48/1/3 43/3/3
f 48/4/4 45/1/4 44/3/4
f 41/4/5 42/1/5 44/3/5
f 48/4/6 47/1/6 45/3/6
o Cylinder
v 4.800000 2.500000 0.000000
v 4.800000 2.500000 0.100000
v 4.755806 2.051292 0.000000
v 4.755806 2.051292 0.100000
v 4.624923 1.619828 0.000000
v 4.624923 1.619828 0.100000
v 4.412380 1.222188 0.000000
v 4.412380 1.222188 0.100000
v 4.126346 0.873654 0.000000
v 4.126346 0.873654 0.100000
v 3.777812 0.587620 0.000000
v 3.777812 0.587620 0.100000
v 3.380172 0.375077 0.000000
v 3.380172 0.375077 0.100000
v 2.948708 0.244194 0.000000
v 2.948708 0.244194 0.100000
v 2.500000 0.200000 0.000000
v 2.500000 0.200000 0.100000
v 2.051292 0.244194 0.000000
v 2.051292 0.244194 0.100000
v 1.619828 0.375077 0.000000
v 1.619828 0.375077 0.100000
v 1.222189 0.587620 0.000000
v 1.222189 0.587620 0.100000
v 0.873654 0.873654 0.000000
v 0.873654 0.873654 0.100000
v 0.587620 1.222189 0.000000
v 0.587620 1.222189 0.100000
v 0.375077 1.619828 0.000000
v 0.375077 1.619828 0.100000
v 0.244194 2.051293 0.000000
v 0.244194 2.051293 0.100000
v 0.200000 2.500001 0.000000
v 0.200000 2.500001 0.100000
v 0.244194 2.948709 0.000000
v 0.244194 2.948709 0.100000
v 0.375078 3.380173 0.000000
v 0.375078 3.380173 0.100000
v 0.587621 3.777812 0.000000
v 0.587621 3.777812 0.100000
v 0.873655 4.126347 0.000000
v 0.873655 4.126347 0.100000
v 1.222190 4.412381 0.000000
v 1.222190 4.412381 0.100000
v 1.619830 4.624924 0.000000
v 1.619830 4.624924 0.100000
v 2.051294 4.755806 0.000000
v 2.051294 4.755806 0.100000
v 2.500002 4.800000 0.000000
v 2.500002 4.800000 0.100000
v 2.948710 4.755805 0.000000
v 2.948710 4.755805 0.100000
v 3.380174 4.624922 0.000000
v 3.380174 4.624922 0.100000
v 3.777814 4.412378 0.000000
v 3.777814 4.412378 0.100000
v 4.126348 4.126344 0.000000
v 4.126348 4.126344 0.100000
v 4.412382 3.777809 0.000000
v 4.412382 3.777809 0.100000
v 4.624924 3.380169 0.000000
v 4.624924 3.380169 0.100000
v 4.755807 2.948704 0.000000
v 4.755807 2.948704 0.100000
vt 1 1 1 1
vt 1 1 1 1
vt 1 1 1 1
vt 1 1 1 1
vt 1 1 1 1
vt 1 1 1 1
vt 1 1 1 1
vt 1 1 1 1
vt 1 1 1 1
vt 1 1 1 1
vt 1 1 1 1
vt 1 1 1 1
vt 1 1 1 1
vt 1 1 1 1
vt 1 1 1 1
vt 1 1 1 1
vt 1 1 1 1
vt 1 1 1 1
vt 1 1 1 1
vt 1 1 1 1
vt 1 1 1 1
vt 1 1 1 1
vt 1 1 1 1
vt 1 1 1 1
vt 1 1 1 1
vt 1 1 1 1
vt 1 1 1 1
vt 1 1 1 1
vt 1 1 1 1
vt 1 1 1 1
vt 1 1 1 1
vt 1 1 1 1
vt 1 1 1 1
vt 1 1 1 1
vt 1 1 1 1
vt 1 1 1 1
vn 0.995200 -0.098000 0.000000
vn 0.956900 -0.290300 0.000000
vn 0.881900 -0.471400 0.000000
vn 0.773000 -0.634400 0.000000
vn 0.634400 -0.773000 0.000000
vn 0.471400 -0.881900 0.000000
vn 0.290300 -0.956900 0.000000
vn 0.098000 -0.995200 0.000000
vn -0.098000 -0.995200 0.000000
vn -0.290300 -0.956900 0.000000
vn -0.471400 -0.881900 0.000000
vn -0.634400 -0.773000 0.000000
vn -0.773000 -0.634400 0.000000
vn -0.881900 -0.471400 0.000000
vn -0.956900 -0.290300 0.000000
vn -0.995200 -0.098000 0.000000
vn -0.995200 0.098000 0.000000
vn -0.956900 0.290300 0.000000
vn -0.881900 0.471400 0.000000
vn -0.773000 0.634400 0.000000
vn -0.634400 0.773000 0.000000
vn -0.471400 0.881900 0.000000
vn -0.290300 0.956900 0.000000
vn -0.098000 0.995200 0.000000
vn 0.098000 0.995200 0.000000
vn 0.290300 0.956900 0.000000
vn 0.471400 0.881900 0.000000
vn 0.634400 0.773000 0.000000
vn 0.773000 0.634400 0.000000
vn 0.881900 0.471400 0.000000
vn -0.000000 0.000000 1.000000
vn 0.995200 0.098000 0.000000
vn 0.956900 0.290300 0.000000
vn 0.000000 0.000000 -1.000000
usemtl Cylinder
s off
f 50/5/7 52/6/7 51/7/7
f 52/5/8 54/6/8 53/7/8
f 54/5/9 56/6/9 55/7/9
f 56/5/10 58/6/10 57/7/10
f 58/5/11 60/6/11 59/7/11
f 60/5/12 62/6/12 61/7/12
f 62/5/13 64/6/13 63/7/13
f 64/5/14 66/6/14 65/7/14
f 66/5/15 68/6/15 67/7/15
f 68/5/16 70/6/16 69/7/16
f 70/5/17 72/6/17 71/7/17
f 72/5/18 74/6/18 73/7/18
f 74/5/19 76/6/19 75/7/19
f 76/5/20 78/6/20 77/7/20
f 78/5/21 80/6/21 79/7/21
f 80/5/22 82/6/22 81/7/22
f 82/5/23 84/6/23 83/7/23
f 84/5/24 86/6/24 85/7/24
f 86/5/25 88/6/25 87/7/25
f 88/5/26 90/6/26 89/7/26
f 90/5/27 92/6/27 91/7/27
f 92/5/28 94/6/28 93/7/28
f 94/5/29 96/6/29 95/7/29
f 96/5/30 98/6/30 97/7/30
f 98/5/31 100/6/31 99/7/31
f 100/5/32 102/6/32 101/7/32
f 102/5/33 104/6/33 103/7/33
f 104/5/34 106/6/34 105/7/34
f 106/5/35 108/6/35 107/7/35
f 108/5/36 110/6/36 109/7/36
f 80/8/37 100/9/37 86/10/37
f 112/5/38 50/6/38 49/7/38
f 110/5/39 112/6/39 111/7/39
f 95/11/40 107/12/40 51/13/40
f 49/14/7 50/5/7 51/7/7
f 51/14/8 52/5/8 53/7/8
f 53/14/9 54/5/9 55/7/9
f 55/14/10 56/5/10 57/7/10
f 57/14/11 58/5/11 59/7/11
f 59/14/12 60/5/12 61/7/12
f 61/14/13 62/5/13 63/7/13
f 63/14/14 64/5/14 65/7/14
f 65/14/15 66/5/15 67/7/15
f 67/14/16 68/5/16 69/7/16
f 69/14/17 70/5/17 71/7/17
f 71/14/18 72/5/18 73/7/18
f 73/14/19 74/5/19 75/7/19
f 75/14/20 76/5/20 77/7/20
f 77/14/21 78/5/21 79/7/21
f 79/14/22 80/5/22 81/7/22
f 81/14/23 82/5/23 83/7/23
f 83/14/24 84/5/24 85/7/24
f 85/14/25 86/5/25 87/7/25
f 87/14/26 88/5/26 89/7/26
f 89/14/27 90/5/27 91/7/27
f 91/14/28 92/5/28 93/7/28
f 93/14/29 94/5/29 95/7/29
f 95/14/30 96/5/30 97/7/30
f 97/14/31 98/5/31 99/7/31
f 99/14/32 100/5/32 101/7/32
f 101/14/33 102/5/33 103/7/33
f 103/14/34 104/5/34 105/7/34
f 105/14/35 106/5/35 107/7/35
f 107/14/36 108/5/36 109/7/36
f 62/15/37 54/16/37 52/17/37
f 54/16/37 58/12/37 56/18/37
f 58/12/37 62/15/37 60/19/37
f 68/20/37 66/21/37 64/22/37
f 74/23/37 70/11/37 68/20/37
f 70/11/37 74/23/37 72/24/37
f 80/8/37 78/25/37 76/26/37
f 86/10/37 82/27/37 80/8/37
f 82/27/37 86/10/37 84/28/37
f 86/10/37 90/29/37 88/30/37
f 90/29/37 94/31/37 92/32/37
f 100/9/37 98/33/37 96/34/37
f 104/35/37 102/36/37 100/9/37
f 108/37/37 106/38/37 104/35/37
f 52/17/37 110/39/37 108/37/37
f 52/17/37 50/13/37 112/40/37
f 62/15/37 58/12/37 54/16/37
f 52/17/37 68/20/37 62/15/37
f 76/26/37 74/23/37 68/20/37
f 52/17/37 80/8/37 76/26/37
f 100/9/37 96/34/37 86/10/37
f 90/29/37 96/34/37 94/31/37
f 108/37/37 104/35/37 100/9/37
f 52/17/37 112/40/37 110/39/37
f 68/20/37 64/22/37 62/15/37
f 52/17/37 76/26/37 68/20/37
f 86/10/37 96/34/37 90/29/37
f 52/17/37 108/37/37 100/9/37
f 100/9/37 80/8/37 52/17/37
f 111/14/38 112/5/38 49/7/38
f 109/14/39 110/5/39 111/7/39
f 51/13/40 111/16/40 49/17/40
f 111/16/40 51/13/40 109/18/40
f 107/12/40 103/15/40 105/19/40
f 95/11/40 99/21/40 101/22/40
f 99/21/40 95/11/40 97/20/40
f 89/26/40 91/23/40 93/24/40
f 85/8/40 87/25/40 89/26/40
f 81/28/40 83/27/40 85/8/40
f 77/30/40 79/10/40 81/28/40
f 73/32/40 75/29/40 77/30/40
f 69/34/40 71/31/40 73/32/40
f 65/9/40 67/33/40 69/34/40
f 61/35/40 63/36/40 65/9/40
f 57/37/40 59/38/40 61/35/40
f 53/40/40 55/39/40 57/37/40
f 95/11/40 51/13/40 53/40/40
f 51/13/40 107/12/40 109/18/40
f 107/12/40 101/22/40 103/15/40
f 89/26/40 93/24/40 95/11/40
f 95/11/40 85/8/40 89/26/40
f 73/32/40 77/30/40 81/28/40
f 81/28/40 69/34/40 73/32/40
f 95/11/40 61/35/40 65/9/40
f 61/35/40 53/40/40 57/37/40
f 95/11/40 101/22/40 107/12/40
f 95/11/40 53/40/40 61/35/40
f 65/9/40 69/34/40 81/28/40
f 81/28/40 95/11/40 65/9/40
f 81/28/40 85/8/40 95/11/40
